<svg width="413" height="142" viewBox="0 0 413 142" fill="none" xmlns="http://www.w3.org/2000/svg">
    <path fill-rule="evenodd" clip-rule="evenodd"
          d="M319.5 139C344.74 139 366.837 125.546 379.011 105.418C393.255 102.619 404 90.0641 404 75C404 70.4663 403.027 66.1599 401.278 62.2784C408.421 56.5992 413 47.8344 413 38C413 20.8792 399.121 7 382 7C374.322 7 367.297 9.79104 361.882 14.4138C350.152 5.37541 335.454 0 319.5 0C303.58 0 288.911 5.35246 277.193 14.3559C271.563 8.58393 263.7 5 255 5C245.488 5 236.977 9.28376 231.291 16.0272C226.779 13.4639 221.56 12 216 12C205.12 12 195.549 17.6047 190.018 26.0844C185.133 22.8702 179.285 21 173 21C165.245 21 158.155 23.8475 152.719 28.5541C149.662 27.5457 146.395 27 143 27C142.682 27 142.365 27.0048 142.05 27.0143C129.306 12.3047 110.49 3 89.5 3C75.8981 3 63.2089 6.90741 52.4935 13.661C46.9205 8.29765 39.3454 5 31 5C13.8792 5 0 18.8792 0 36C0 47.4294 6.18532 57.4142 15.3912 62.7895C14.4871 65.6993 14 68.7928 14 72C14 80.7711 17.6427 88.6914 23.4978 94.3306C32.6512 122.02 58.7423 142 89.5 142C111.75 142 131.558 131.544 144.279 115.278C146.448 116.255 148.75 116.991 151.15 117.449C158.695 128.64 171.488 136 186 136C201.271 136 214.639 127.85 221.99 115.661C226.198 117.797 230.959 119 236 119C246.115 119 255.099 114.155 260.758 106.659C273.079 126.097 294.783 139 319.5 139Z"
          fill="url(#paint0_linear)"/>
    <defs>
        <linearGradient id="paint0_linear" x1="176" y1="142" x2="176.497" y2="38.5024" gradientUnits="userSpaceOnUse">
            <stop stop-color="#EBEBEB"/>
            <stop offset="1" stop-color="#C4C4C4" stop-opacity="0"/>
        </linearGradient>
    </defs>
</svg>
