<svg width="103" height="103" viewBox="0 0 103 80" fill="none" xmlns="http://www.w3.org/2000/svg">
<path d="M68.5376 4.75761H33.6442C30.9719 4.75761 28.8055 6.92939 28.8055 9.60842V72.7965C28.8055 75.4755 30.9719 77.6473 33.6442 77.6473H68.5376C71.2099 77.6473 73.3762 75.4755 73.3762 72.7965V9.60842C73.3762 6.92939 71.2099 4.75761 68.5376 4.75761Z" fill="#FD985B"/>
<path d="M68.5326 78.1328H33.6442C32.2316 78.1315 30.8771 77.5684 29.8782 76.567C28.8793 75.5656 28.3176 74.2078 28.3163 72.7916V9.60842C28.3176 8.19222 28.8793 6.8344 29.8782 5.833C30.8771 4.83159 32.2316 4.26843 33.6442 4.26714H68.5326C69.9462 4.26714 71.3018 4.82972 72.3018 5.83127C73.3018 6.83281 73.8642 8.19137 73.8655 9.60842V72.7916C73.8642 74.2086 73.3018 75.5672 72.3018 76.5687C71.3018 77.5703 69.9462 78.1328 68.5326 78.1328ZM33.6442 5.24809C32.4911 5.24939 31.3855 5.7092 30.5701 6.52664C29.7547 7.34408 29.2961 8.45239 29.2948 9.60842V72.7916C29.2961 73.9476 29.7547 75.0559 30.5701 75.8733C31.3855 76.6908 32.4911 77.1506 33.6442 77.1519H68.5326C69.6866 77.1519 70.7934 76.6927 71.6099 75.8751C72.4263 75.0575 72.8857 73.9484 72.887 72.7916V9.60842C72.8857 8.45154 72.4263 7.34248 71.6099 6.5249C70.7934 5.70732 69.6866 5.24809 68.5326 5.24809H33.6442Z" fill="#093F68"/>
<path d="M73.3762 10.8297H28.8055V66.6214H73.3762V10.8297Z" fill="white"/>
<path d="M73.3762 67.1119H28.8055C28.6758 67.1119 28.5513 67.0602 28.4596 66.9682C28.3678 66.8762 28.3163 66.7515 28.3163 66.6214V10.8297C28.3163 10.6996 28.3678 10.5749 28.4596 10.4829C28.5513 10.3909 28.6758 10.3392 28.8055 10.3392H73.3762C73.506 10.3392 73.6304 10.3909 73.7222 10.4829C73.8139 10.5749 73.8655 10.6996 73.8655 10.8297V66.6214C73.8655 66.7515 73.8139 66.8762 73.7222 66.9682C73.6304 67.0602 73.506 67.1119 73.3762 67.1119ZM29.2948 66.1309H72.887V11.3202H29.2948V66.1309Z" fill="#093F68"/>
<path d="M68.2685 49.2242H51.3845C50.4495 49.2242 49.6917 49.984 49.6917 50.9212V53.6287C49.6917 54.5659 50.4495 55.3257 51.3845 55.3257H68.2685C69.2034 55.3257 69.9613 54.5659 69.9613 53.6287V50.9212C69.9613 49.984 69.2034 49.2242 68.2685 49.2242Z" fill="#DFEAEF"/>
<path d="M68.2734 55.8162H51.3844C50.8057 55.8162 50.2507 55.5857 49.8415 55.1755C49.4323 54.7652 49.2024 54.2088 49.2024 53.6287V50.9163C49.2037 50.337 49.4342 49.7819 49.8432 49.3727C50.2523 48.9635 50.8066 48.7337 51.3844 48.7337H68.2734C68.8504 48.735 69.4034 48.9654 69.8114 49.3744C70.2194 49.7835 70.4492 50.3379 70.4505 50.9163V53.6287C70.4505 54.208 70.2213 54.7636 69.8131 55.1737C69.405 55.5838 68.8512 55.8149 68.2734 55.8162ZM51.3844 49.7147C51.0661 49.7147 50.7607 49.8411 50.5351 50.0663C50.3096 50.2915 50.1822 50.5972 50.1809 50.9163V53.6287C50.1809 53.9487 50.3077 54.2556 50.5334 54.4818C50.7591 54.7081 51.0652 54.8352 51.3844 54.8352H68.2734C68.5917 54.8339 68.8966 54.7062 69.1212 54.4801C69.3459 54.254 69.472 53.9478 69.472 53.6287V50.9163C69.472 50.5976 69.3457 50.292 69.1209 50.0666C68.8961 49.8413 68.5913 49.7147 68.2734 49.7147H51.3844Z" fill="#DFEAEF"/>
<path d="M68.0483 14.6015H51.6046C50.5481 14.6015 49.6917 15.4601 49.6917 16.5192V20.5117C49.6917 21.5709 50.5481 22.4295 51.6046 22.4295H68.0483C69.1048 22.4295 69.9613 21.5709 69.9613 20.5117V16.5192C69.9613 15.4601 69.1048 14.6015 68.0483 14.6015Z" fill="#DFEAEF"/>
<path d="M68.0483 22.915H51.6095C50.9719 22.915 50.3604 22.6615 49.9091 22.21C49.4579 21.7585 49.2037 21.146 49.2024 20.5068V16.5192C49.2037 15.8801 49.4579 15.2675 49.9091 14.8161C50.3604 14.3646 50.9719 14.111 51.6095 14.111H68.0483C68.6854 14.111 69.2964 14.3647 69.7469 14.8164C70.1974 15.268 70.4505 15.8805 70.4505 16.5192V20.5068C70.4505 21.1455 70.1974 21.758 69.7469 22.2097C69.2964 22.6613 68.6854 22.915 68.0483 22.915ZM51.6095 15.0674C51.4221 15.0668 51.2365 15.1032 51.0632 15.1747C50.8899 15.2461 50.7323 15.3511 50.5996 15.4837C50.4669 15.6163 50.3616 15.7739 50.2897 15.9474C50.2179 16.1209 50.1809 16.3069 50.1809 16.4947V20.4823C50.1822 20.8613 50.3333 21.2243 50.6011 21.4918C50.8688 21.7593 51.2315 21.9096 51.6095 21.9096H68.0483C68.4255 21.9083 68.7869 21.7575 69.0536 21.4901C69.3203 21.2227 69.4707 20.8604 69.472 20.4823V16.5192C69.472 16.1407 69.322 15.7777 69.055 15.51C68.788 15.2423 68.4259 15.0919 68.0483 15.0919L51.6095 15.0674Z" fill="#DFEAEF"/>
<path d="M49.584 40.3858H32.6021C31.6942 40.3858 30.9583 41.1236 30.9583 42.0338V44.4911C30.9583 45.4012 31.6942 46.1391 32.6021 46.1391H49.584C50.4919 46.1391 51.2279 45.4012 51.2279 44.4911V42.0338C51.2279 41.1236 50.4919 40.3858 49.584 40.3858Z" fill="#DFEAEF"/>
<path d="M49.584 46.6296H32.6021C32.322 46.6296 32.0446 46.5742 31.7858 46.4668C31.527 46.3593 31.2919 46.2018 31.0938 46.0032C30.8957 45.8046 30.7386 45.5689 30.6314 45.3094C30.5242 45.05 30.469 44.7719 30.469 44.4911V42.0387C30.4703 41.4724 30.6956 40.9297 31.0955 40.5297C31.4954 40.1298 32.0372 39.9051 32.6021 39.9051H49.584C50.1489 39.9051 50.6907 40.1298 51.0906 40.5297C51.4905 40.9297 51.7158 41.4724 51.7171 42.0387V44.4911C51.7171 45.0582 51.4924 45.6022 51.0923 46.0032C50.6923 46.4043 50.1497 46.6296 49.584 46.6296ZM32.6021 40.8763C32.2967 40.8763 32.0038 40.9976 31.7874 41.2136C31.571 41.4296 31.4488 41.7227 31.4475 42.0289V44.4813C31.4475 44.7883 31.5691 45.0827 31.7857 45.2998C32.0022 45.5168 32.2959 45.6388 32.6021 45.6388H49.584C49.8902 45.6388 50.1839 45.5168 50.4004 45.2998C50.617 45.0827 50.7386 44.7883 50.7386 44.4813V42.0289C50.7373 41.7227 50.6151 41.4296 50.3987 41.2136C50.1823 40.9976 49.8894 40.8763 49.584 40.8763H32.6021Z" fill="#DFEAEF"/>
<path d="M48.7376 23.6753H33.4485C32.0732 23.6753 30.9583 24.793 30.9583 26.1718V34.3922C30.9583 35.771 32.0732 36.8887 33.4485 36.8887H48.7376C50.1129 36.8887 51.2279 35.771 51.2279 34.3922V26.1718C51.2279 24.793 50.1129 23.6753 48.7376 23.6753Z" fill="#DFEAEF"/>
<path d="M48.7376 37.3792H33.4485C32.6583 37.3792 31.9005 37.0645 31.3417 36.5043C30.7829 35.9441 30.469 35.1844 30.469 34.3922V26.1669C30.4703 25.3755 30.7848 24.617 31.3434 24.0579C31.902 23.4988 32.6592 23.1848 33.4485 23.1848H48.7376C49.527 23.1848 50.2841 23.4988 50.8427 24.0579C51.4013 24.617 51.7158 25.3755 51.7171 26.1669V34.3922C51.7171 35.1844 51.4032 35.9441 50.8444 36.5043C50.2857 37.0645 49.5278 37.3792 48.7376 37.3792ZM33.4485 24.1657C32.9187 24.1657 32.4104 24.3764 32.0353 24.7516C31.6602 25.1267 31.4488 25.6357 31.4475 26.1669V34.3922C31.4488 34.9238 31.66 35.4333 32.035 35.8092C32.41 36.1852 32.9182 36.3969 33.4485 36.3982H48.7376C49.2683 36.3982 49.7773 36.1869 50.1525 35.8107C50.5278 35.4345 50.7386 34.9242 50.7386 34.3922V26.1669C50.7373 25.6357 50.5259 25.1267 50.1508 24.7516C49.7757 24.3764 49.2675 24.1657 48.7376 24.1657H33.4485Z" fill="#DFEAEF"/>
<path d="M55.773 8.37733H48.6104C48.4806 8.37733 48.3562 8.32565 48.2645 8.23367C48.1727 8.14169 48.1212 8.01694 48.1212 7.88685C48.1212 7.75677 48.1727 7.63202 48.2645 7.54003C48.3562 7.44805 48.4806 7.39638 48.6104 7.39638H55.773C55.9028 7.39638 56.0272 7.44805 56.119 7.54003C56.2107 7.63202 56.2623 7.75677 56.2623 7.88685C56.2623 8.01694 56.2107 8.14169 56.119 8.23367C56.0272 8.32565 55.9028 8.37733 55.773 8.37733Z" fill="#093F68"/>
<path d="M46.4039 8.37733C46.2741 8.37733 46.1497 8.32566 46.0579 8.23367C45.9662 8.14169 45.9146 8.01694 45.9146 7.88685C45.9122 7.8542 45.9122 7.82141 45.9146 7.78876L45.944 7.69557L45.988 7.61218L46.0516 7.53862C46.1433 7.44726 46.2673 7.39599 46.3966 7.39599C46.5258 7.39599 46.6498 7.44726 46.7415 7.53862L46.8051 7.61218L46.8491 7.69557L46.8785 7.78876C46.8809 7.82141 46.8809 7.8542 46.8785 7.88685C46.8766 8.01623 46.8239 8.13963 46.7317 8.23019C46.6883 8.27752 46.6348 8.31441 46.5751 8.33809C46.5209 8.36142 46.4629 8.37471 46.4039 8.37733Z" fill="#093F68"/>
<path d="M51.0909 74.2139C52.3528 74.2139 53.3757 73.1884 53.3757 71.9234C53.3757 70.6584 52.3528 69.6329 51.0909 69.6329C49.829 69.6329 48.8061 70.6584 48.8061 71.9234C48.8061 73.1884 49.829 74.2139 51.0909 74.2139Z" fill="#093F68"/>
<path d="M48.5419 14.6015H20.6546C19.9795 14.6015 19.3318 14.87 18.854 15.3482C18.3761 15.8264 18.1069 16.4751 18.1057 17.152V32.5774C18.1069 33.2543 18.3761 33.903 18.854 34.3812C19.3318 34.8594 19.9795 35.1279 20.6546 35.1279H37.3772L40.9292 41.3324V35.1279H48.5468C48.8813 35.1286 49.2126 35.0631 49.5219 34.9352C49.8311 34.8073 50.1121 34.6195 50.3489 34.3826C50.5857 34.1457 50.7735 33.8644 50.9017 33.5546C51.0298 33.2448 51.0958 32.9128 51.0958 32.5774V17.1667C51.0977 16.8297 51.033 16.4956 50.9054 16.1838C50.7778 15.8721 50.5899 15.5887 50.3524 15.3502C50.1149 15.1117 49.8327 14.9227 49.5219 14.7942C49.2111 14.6657 48.8781 14.6002 48.5419 14.6015Z" fill="#FFBC0E"/>
<path d="M40.9243 41.8229C40.8376 41.8228 40.7525 41.7995 40.6777 41.7556C40.6029 41.7116 40.5411 41.6485 40.4987 41.5728L37.0739 35.6184H20.6351C19.8302 35.6184 19.0581 35.2982 18.4885 34.728C17.9188 34.1579 17.5982 33.3844 17.5969 32.5774V17.1667C17.5982 16.3597 17.9188 15.5862 18.4885 15.0161C19.0581 14.4459 19.8302 14.1257 20.6351 14.1257H48.5224C49.3273 14.1257 50.0994 14.4459 50.669 15.0161C51.2386 15.5862 51.5593 16.3597 51.5606 17.1667V32.5921C51.5593 33.3991 51.2386 34.1726 50.669 34.7427C50.0994 35.3129 49.3273 35.6331 48.5224 35.6331H41.4136V41.3471C41.4173 41.4579 41.3836 41.5666 41.3179 41.6557C41.2521 41.7448 41.1582 41.8089 41.0515 41.8376C41.0086 41.8396 40.9657 41.8346 40.9243 41.8229ZM20.6498 15.0919C20.1044 15.0919 19.5812 15.3088 19.1951 15.695C18.8089 16.0812 18.5913 16.6051 18.59 17.1519V32.5774C18.5913 33.1242 18.8089 33.6482 19.1951 34.0344C19.5812 34.4205 20.1044 34.6374 20.6498 34.6374H37.3723C37.459 34.6376 37.5441 34.6608 37.6189 34.7048C37.6937 34.7487 37.7555 34.8118 37.798 34.8876L40.4351 39.4931V35.1279C40.4351 34.9978 40.4866 34.8731 40.5784 34.7811C40.6701 34.6891 40.7946 34.6374 40.9243 34.6374H48.5419C49.0874 34.6374 49.6105 34.4205 49.9967 34.0344C50.3828 33.6482 50.6004 33.1242 50.6017 32.5774V17.1667C50.6004 16.6199 50.3828 16.0959 49.9967 15.7097C49.6105 15.3235 49.0874 15.1067 48.5419 15.1067L20.6498 15.0919Z" fill="#093F68"/>
<path d="M58.8993 28.325H84.0712C84.6811 28.325 85.2659 28.5679 85.6972 29.0002C86.1284 29.4325 86.3707 30.0189 86.3707 30.6302V44.5451C86.3707 45.1564 86.1284 45.7428 85.6972 46.1751C85.2659 46.6074 84.6811 46.8503 84.0712 46.8503H68.9778L65.7732 52.4466V46.8503H58.9237C58.6216 46.8509 58.3223 46.7918 58.043 46.6761C57.7637 46.5605 57.51 46.3907 57.2963 46.1765C57.0827 45.9624 56.9133 45.708 56.798 45.428C56.6827 45.148 56.6236 44.848 56.6243 44.5451V30.6302C56.623 30.0227 56.8614 29.4393 57.2877 29.0074C57.7139 28.5755 58.2933 28.3302 58.8993 28.325Z" fill="#F56132"/>
<path d="M65.7733 52.9371H65.6461C65.5394 52.9083 65.4455 52.8442 65.3797 52.7552C65.314 52.6661 65.2803 52.5573 65.284 52.4466V47.3408H58.9238C58.1846 47.3395 57.476 47.0445 56.9533 46.5205C56.4306 45.9965 56.1364 45.2861 56.1351 44.545V30.6302C56.1351 29.8888 56.4289 29.1777 56.9519 28.6534C57.4749 28.1291 58.1842 27.8345 58.9238 27.8345H84.0957C84.8353 27.8345 85.5446 28.1291 86.0676 28.6534C86.5906 29.1777 86.8844 29.8888 86.8844 30.6302V44.545C86.8831 45.2861 86.5889 45.9965 86.0662 46.5205C85.5435 47.0445 84.8349 47.3395 84.0957 47.3408H69.2616L66.1989 52.6919C66.1558 52.7667 66.0938 52.8288 66.019 52.8719C65.9443 52.9149 65.8595 52.9374 65.7733 52.9371ZM58.9238 28.8155C58.4437 28.8155 57.9833 29.0067 57.6438 29.347C57.3043 29.6873 57.1136 30.1489 57.1136 30.6302V44.545C57.1136 45.0264 57.3043 45.4879 57.6438 45.8283C57.9833 46.1686 58.4437 46.3598 58.9238 46.3598H65.7733C65.903 46.3598 66.0275 46.4115 66.1192 46.5035C66.211 46.5954 66.2625 46.7202 66.2625 46.8503V50.6073L68.5522 46.605C68.5953 46.5302 68.6574 46.4681 68.7321 46.425C68.8069 46.382 68.8917 46.3595 68.9779 46.3598H84.0712C84.5513 46.3598 85.0118 46.1686 85.3513 45.8283C85.6907 45.4879 85.8815 45.0264 85.8815 44.545V30.6302C85.8815 30.1489 85.6907 29.6873 85.3513 29.347C85.0118 29.0067 84.5513 28.8155 84.0712 28.8155H58.9238Z" fill="#093F68"/>
<path d="M68.0337 63.5117H34.1335C33.8066 63.5265 33.4802 63.4747 33.1739 63.3594C32.8675 63.2442 32.5876 63.0679 32.3511 62.8412C32.1146 62.6146 31.9264 62.3422 31.7978 62.0406C31.6692 61.739 31.6029 61.4144 31.6029 61.0863C31.6029 60.7583 31.6692 60.4337 31.7978 60.1321C31.9264 59.8305 32.1146 59.5581 32.3511 59.3314C32.5876 59.1048 32.8675 58.9285 33.1739 58.8133C33.4802 58.698 33.8066 58.6462 34.1335 58.6609H68.019C68.6418 58.689 69.2299 58.9568 69.6607 59.4086C70.0915 59.8604 70.332 60.4613 70.332 61.0863C70.332 61.7114 70.0915 62.3123 69.6607 62.7641C69.2299 63.2159 68.6418 63.4837 68.019 63.5117H68.0337ZM34.1335 59.6419C33.9372 59.6304 33.7407 59.6593 33.5559 59.7267C33.3712 59.7941 33.2021 59.8986 33.0591 60.0339C32.9161 60.1691 32.8022 60.3323 32.7243 60.5132C32.6464 60.6942 32.6062 60.8892 32.6062 61.0863C32.6062 61.2834 32.6464 61.4785 32.7243 61.6594C32.8022 61.8404 32.9161 62.0036 33.0591 62.1388C33.2021 62.2741 33.3712 62.3786 33.5559 62.446C33.7407 62.5134 33.9372 62.5423 34.1335 62.5308H68.019C68.3866 62.5093 68.7321 62.3478 68.9848 62.0792C69.2375 61.8107 69.3783 61.4555 69.3783 61.0863C69.3783 60.7172 69.2375 60.362 68.9848 60.0934C68.7321 59.8249 68.3866 59.6634 68.019 59.6419H34.1335Z" fill="#DFEAEF"/>
<path d="M44.7894 20.6H24.4023C24.2726 20.6 24.1481 20.5483 24.0564 20.4563C23.9646 20.3644 23.9131 20.2396 23.9131 20.1095C23.9131 19.9794 23.9646 19.8547 24.0564 19.7627C24.1481 19.6707 24.2726 19.619 24.4023 19.619H44.7894C44.9191 19.619 45.0436 19.6707 45.1353 19.7627C45.2271 19.8547 45.2786 19.9794 45.2786 20.1095C45.2786 20.2396 45.2271 20.3644 45.1353 20.4563C45.0436 20.5483 44.9191 20.6 44.7894 20.6Z" fill="#093F68"/>
<path d="M44.7894 24.563H24.4023C24.2726 24.563 24.1481 24.5114 24.0564 24.4194C23.9646 24.3274 23.9131 24.2027 23.9131 24.0726C23.9131 23.9425 23.9646 23.8177 24.0564 23.7257C24.1481 23.6338 24.2726 23.5821 24.4023 23.5821H44.7894C44.9191 23.5821 45.0436 23.6338 45.1353 23.7257C45.2271 23.8177 45.2786 23.9425 45.2786 24.0726C45.2786 24.2027 45.2271 24.3274 45.1353 24.4194C45.0436 24.5114 44.9191 24.563 44.7894 24.563Z" fill="#093F68"/>
<path d="M38.6297 28.531H24.4023C24.2726 28.531 24.1481 28.4793 24.0564 28.3873C23.9646 28.2954 23.9131 28.1706 23.9131 28.0405C23.9131 27.9104 23.9646 27.7857 24.0564 27.6937C24.1481 27.6017 24.2726 27.55 24.4023 27.55H38.6297C38.7595 27.55 38.8839 27.6017 38.9757 27.6937C39.0674 27.7857 39.119 27.9104 39.119 28.0405C39.119 28.1706 39.0674 28.2954 38.9757 28.3873C38.8839 28.4793 38.7595 28.531 38.6297 28.531Z" fill="#093F68"/>
<path d="M81.6788 33.4554H61.2917C61.162 33.4554 61.0375 33.4037 60.9458 33.3117C60.854 33.2197 60.8025 33.095 60.8025 32.9649C60.8025 32.8348 60.854 32.7101 60.9458 32.6181C61.0375 32.5261 61.162 32.4744 61.2917 32.4744H81.6788C81.8085 32.4744 81.933 32.5261 82.0248 32.6181C82.1165 32.7101 82.168 32.8348 82.168 32.9649C82.168 33.095 82.1165 33.2197 82.0248 33.3117C81.933 33.4037 81.8085 33.4554 81.6788 33.4554Z" fill="#093F68"/>
<path d="M81.6788 37.4184H61.2917C61.162 37.4184 61.0375 37.3667 60.9458 37.2748C60.854 37.1828 60.8025 37.058 60.8025 36.9279C60.8025 36.7979 60.854 36.6731 60.9458 36.5811C61.0375 36.4891 61.162 36.4375 61.2917 36.4375H81.6788C81.8085 36.4375 81.933 36.4891 82.0248 36.5811C82.1165 36.6731 82.168 36.7979 82.168 36.9279C82.168 37.058 82.1165 37.1828 82.0248 37.2748C81.933 37.3667 81.8085 37.4184 81.6788 37.4184Z" fill="#093F68"/>
<path d="M75.5191 41.3864H61.2917C61.162 41.3864 61.0375 41.3347 60.9458 41.2427C60.854 41.1507 60.8025 41.026 60.8025 40.8959C60.8025 40.7658 60.854 40.6411 60.9458 40.5491C61.0375 40.4571 61.162 40.4054 61.2917 40.4054H75.5191C75.6489 40.4054 75.7733 40.4571 75.8651 40.5491C75.9568 40.6411 76.0084 40.7658 76.0084 40.8959C76.0084 41.026 75.9568 41.1507 75.8651 41.2427C75.7733 41.3347 75.6489 41.3864 75.5191 41.3864Z" fill="#093F68"/>
</svg>
