<svg width="75" height="80" viewBox="0 0 75 80" fill="none" xmlns="http://www.w3.org/2000/svg">
<path d="M74.1831 40C74.1831 49.7496 70.3183 59.0999 63.4388 65.9939C56.5594 72.8879 47.229 76.7609 37.5 76.7609C27.7711 76.7609 18.4406 72.8879 11.5612 65.9939C4.68177 59.0999 0.816956 49.7496 0.816956 40C0.816956 30.2504 4.68177 20.9001 11.5612 14.0061C18.4406 7.11208 27.7711 3.23907 37.5 3.23907C47.229 3.23907 56.5594 7.11208 63.4388 14.0061C70.3183 20.9001 74.1831 30.2504 74.1831 40Z" fill="white"/>
<path d="M37.5001 77.1543C32.6298 77.1595 27.8063 76.202 23.3058 74.3366C18.8052 72.4713 14.716 69.7347 11.2722 66.2836C7.82837 62.8325 5.0976 58.7346 3.23621 54.2244C1.37482 49.7144 0.419356 44.8806 0.42452 40C0.42452 35.1208 1.38351 30.2894 3.24673 25.7817C5.10995 21.2739 7.84092 17.1781 11.2837 13.728C14.7265 10.2779 18.8137 7.54111 23.3119 5.67394C27.8101 3.80676 32.6312 2.84573 37.5001 2.84573C42.3689 2.84573 47.1901 3.80676 51.6883 5.67394C56.1865 7.54111 60.2737 10.2779 63.7164 13.728C67.1592 17.1781 69.8902 21.2739 71.7534 25.7817C73.6166 30.2894 74.5756 35.1208 74.5756 40C74.5756 44.8792 73.6166 49.7106 71.7534 54.2183C69.8902 58.7261 67.1592 62.8219 63.7164 66.272C60.2737 69.7221 56.1865 72.4589 51.6883 74.3261C47.1901 76.1933 42.3689 77.1543 37.5001 77.1543ZM37.5001 3.6324C30.5047 3.64036 23.6601 5.67033 17.7871 9.47887C11.914 13.2874 7.26199 18.7128 4.38877 25.1045C2.28238 29.786 1.19843 34.8646 1.20952 40C1.20952 44.7759 2.1482 49.505 3.97197 53.9173C5.79574 58.3296 8.46889 62.3387 11.8388 65.7158C15.2087 69.0928 19.2093 71.7717 23.6123 73.5993C28.0153 75.4269 32.7343 76.3676 37.5001 76.3676C42.2658 76.3676 46.9849 75.4269 51.3879 73.5993C55.7908 71.7717 59.7915 69.0928 63.1614 65.7158C66.5313 62.3387 69.2044 58.3296 71.0282 53.9173C72.8519 49.505 73.7906 44.7759 73.7906 40C73.8017 34.8646 72.7178 29.786 70.6114 25.1045C67.7382 18.7128 63.0861 13.2874 57.2131 9.47887C51.3401 5.67033 44.4955 3.64036 37.5001 3.6324Z" fill="#093F68"/>
<path d="M15.1275 29.0378L23.5153 30.1942C23.5153 30.1942 32.6684 27.3897 33.6378 27.3897C34.6073 27.3897 38.6972 32.3536 38.6972 32.3536C38.6972 32.3536 56.8935 46.49 57.5372 47.6739C58.1809 48.8579 57.5372 52.6929 53.3374 51.9377C53.3374 51.9377 53.3374 54.9034 51.6143 55.3361C50.5841 55.599 49.5046 55.599 48.4743 55.3361C48.4743 55.3361 48.3723 57.6331 46.3274 58.172C44.2824 58.7109 43.521 58.0343 43.521 58.0343C43.521 58.0343 42.3121 61.2518 40.0513 60.6028C37.7905 59.9538 35.4669 57.9635 34.1638 56.7757C32.8607 55.5878 22.8362 48.3229 22.8362 48.3229L10.5981 47.4733L15.1275 29.0378Z" fill="#FFC9B0"/>
<path d="M40.6832 61.0866C40.4399 61.0863 40.1979 61.0505 39.9649 60.9804C38.234 60.4848 36.2636 59.2065 33.9361 57.0471C32.7586 55.9497 23.7311 49.4164 22.7342 48.6887L10.5667 47.8313C10.5099 47.8271 10.4547 47.8107 10.4049 47.783C10.3552 47.7554 10.312 47.7173 10.2784 47.6712C10.2448 47.6252 10.2216 47.5724 10.2103 47.5165C10.1991 47.4606 10.2002 47.4029 10.2134 47.3475L14.735 28.9434C14.7575 28.8482 14.8146 28.7648 14.8952 28.7096C14.9757 28.6543 15.074 28.6311 15.1707 28.6445L23.4721 29.793C24.7359 29.3997 32.6487 26.9964 33.626 26.9964C34.6034 26.9964 37.6766 30.5364 38.9601 32.0704C42.1001 34.5012 57.2231 46.2933 57.8708 47.4851C58.2986 48.2718 58.2633 49.8451 57.4155 50.9858C56.9523 51.6348 55.8651 52.6339 53.6985 52.39C53.62 53.3065 53.2667 55.3243 51.7007 55.7176C50.7579 55.9531 49.7762 55.9867 48.8197 55.8159C48.7251 56.455 48.4502 57.0537 48.0274 57.5415C47.6046 58.0293 47.0515 58.3859 46.4333 58.5693C45.0517 58.9311 44.1882 58.7777 43.7172 58.5968C43.3443 59.3874 42.3317 61.0866 40.6832 61.0866ZM11.0887 47.0997L22.899 47.9296C22.9725 47.9359 23.0429 47.9617 23.1031 48.0043C23.4956 48.2993 33.1707 55.3007 34.4856 56.4885C36.7189 58.5417 38.5912 59.765 40.2004 60.2252C42.0883 60.768 43.1873 57.9242 43.1991 57.8967C43.2212 57.8371 43.2574 57.7838 43.3046 57.7413C43.3518 57.6989 43.4085 57.6685 43.4699 57.6528C43.532 57.6369 43.597 57.6365 43.6593 57.6516C43.7215 57.6667 43.7791 57.6968 43.8271 57.7393C43.8271 57.7393 44.5022 58.2585 46.2685 57.7905C48.0347 57.3224 48.1211 55.399 48.125 55.3164C48.1282 55.2563 48.145 55.1978 48.1743 55.1453C48.2035 55.0928 48.2444 55.0477 48.2938 55.0135C48.343 54.9795 48.3994 54.9572 48.4586 54.9483C48.5178 54.9394 48.5782 54.9443 48.6352 54.9624C49.5906 55.1971 50.5883 55.1971 51.5437 54.9624C52.7212 54.6713 52.9684 52.685 52.9724 51.9455C52.9723 51.8877 52.9849 51.8306 53.0093 51.7783C53.0337 51.726 53.0694 51.6796 53.1137 51.6427C53.1576 51.6067 53.2087 51.5807 53.2636 51.5664C53.3185 51.5522 53.3758 51.55 53.4316 51.5601C54.9663 51.8354 56.1359 51.4814 56.8149 50.5335C57.494 49.5855 57.4861 48.3623 57.2074 47.8706C56.6776 46.9895 45.7111 38.2969 38.4695 32.6722C38.4468 32.6545 38.4257 32.6348 38.4067 32.6132C36.5423 30.3515 34.1912 27.8657 33.6417 27.7909C32.9863 27.7909 27.1576 29.5019 23.6408 30.5797C23.5852 30.5919 23.5277 30.5919 23.4721 30.5797L15.4337 29.4705L11.0887 47.0997Z" fill="#093F68"/>
<path d="M25.7009 48.1975C26.6293 47.3447 26.6926 45.8998 25.8423 44.9702C24.992 44.0406 23.5501 43.9784 22.6217 44.8312L19.601 47.606C18.6726 48.4588 18.6093 49.9038 19.4596 50.8333C20.3099 51.7629 21.7518 51.8251 22.6802 50.9723L25.7009 48.1975Z" fill="#E28362"/>
<path d="M21.1445 51.9652C20.7755 51.9645 20.4107 51.8873 20.0729 51.7384C19.7352 51.5895 19.4318 51.3721 19.182 51.0999C18.7033 50.5761 18.4517 49.8833 18.4826 49.1737C18.5136 48.4642 18.8244 47.7959 19.3469 47.316L22.3731 44.5391C22.6251 44.2726 22.9292 44.0609 23.2663 43.9172C23.6034 43.7734 23.9665 43.7007 24.3328 43.7034C24.6992 43.7062 25.0611 43.7844 25.3961 43.9332C25.731 44.082 26.0319 44.2982 26.2799 44.5684C26.528 44.8386 26.718 45.157 26.8381 45.5039C26.9582 45.8508 27.0058 46.2187 26.9781 46.5848C26.9503 46.9509 26.8478 47.3074 26.6768 47.6321C26.5058 47.9568 26.27 48.2428 25.9841 48.4724L22.9579 51.2533C22.4647 51.7113 21.817 51.9657 21.1445 51.9652ZM19.7551 50.5689C20.0936 50.9378 20.5644 51.1569 21.0641 51.1783C21.5637 51.1997 22.0515 51.0216 22.4202 50.6829L25.4424 47.906C25.637 47.7417 25.7964 47.5397 25.9112 47.3121C26.0259 47.0845 26.0935 46.8359 26.1099 46.5815C26.1264 46.327 26.0913 46.0718 26.0069 45.8313C25.9225 45.5908 25.7904 45.3698 25.6186 45.1817C25.4467 44.9936 25.2388 44.8423 25.0071 44.7368C24.7755 44.6313 24.5249 44.5738 24.2705 44.5678C24.0161 44.5617 23.7632 44.6073 23.5268 44.7017C23.2904 44.7962 23.0756 44.9375 22.8951 45.1173L19.8689 47.8981C19.5008 48.2374 19.2821 48.7092 19.2608 49.2099C19.2394 49.7106 19.4172 50.1994 19.7551 50.5689Z" fill="#093F68"/>
<path d="M30.0941 50.5194C31.0225 49.6665 31.0858 48.2216 30.2355 47.292C29.3852 46.3624 27.9433 46.3002 27.0149 47.1531L22.5244 51.278C21.596 52.1309 21.5327 53.5758 22.383 54.5054C23.2333 55.435 24.6752 55.4972 25.6036 54.6443L30.0941 50.5194Z" fill="#E28362"/>
<path d="M24.0726 55.6389H23.9548C23.4269 55.6159 22.9175 55.4366 22.4912 55.1236C22.0649 54.8106 21.7407 54.378 21.5597 53.8805C21.3786 53.3829 21.3488 52.8427 21.4741 52.3282C21.5993 51.8137 21.8739 51.3479 22.2632 50.9897L26.7573 46.8637C27.0108 46.6044 27.3144 46.3996 27.6495 46.2617C27.9845 46.1238 28.3441 46.0557 28.7063 46.0615C29.0685 46.0674 29.4257 46.147 29.7562 46.2957C30.0866 46.4443 30.3835 46.6588 30.6286 46.926C30.8737 47.1933 31.0619 47.5078 31.1819 47.8503C31.3018 48.1928 31.3509 48.5562 31.3262 48.9184C31.3015 49.2805 31.2034 49.6339 31.0381 49.9568C30.8727 50.2798 30.6435 50.5657 30.3644 50.797L25.8742 54.9467C25.3818 55.3962 24.7386 55.6433 24.0726 55.6389ZM28.5589 46.9463C28.088 46.9461 27.6342 47.1229 27.2872 47.4419L22.793 51.5679C22.5187 51.8198 22.3248 52.1473 22.2356 52.5093C22.1464 52.8713 22.1659 53.2517 22.2917 53.6026C22.4175 53.9535 22.644 54.2593 22.9427 54.4817C23.2414 54.704 23.599 54.8329 23.9705 54.8523C24.219 54.8645 24.4675 54.827 24.7013 54.7419C24.9352 54.6568 25.1497 54.5258 25.3325 54.3567L29.8345 50.2267C30.1141 49.9689 30.3096 49.6327 30.3954 49.2618C30.4813 48.891 30.4535 48.5028 30.3157 48.148C30.1779 47.7933 29.9365 47.4884 29.6231 47.2733C29.3097 47.0582 28.9388 46.9428 28.5589 46.9423V46.9463Z" fill="#093F68"/>
<path d="M37.9786 56.3524C38.8968 55.4886 38.943 54.043 38.0818 53.1236C37.2205 52.2042 35.778 52.1591 34.8597 53.023L30.4184 57.201C29.5001 58.0648 29.4539 59.5104 30.3152 60.4298C31.1764 61.3492 32.619 61.3943 33.5372 60.5305L37.9786 56.3524Z" fill="#E28362"/>
<path d="M31.9814 61.5429H31.8951C31.5443 61.5327 31.199 61.4531 30.879 61.3086C30.559 61.1642 30.2707 60.9577 30.0307 60.7011C29.547 60.183 29.2878 59.494 29.3099 58.7848C29.332 58.0757 29.6335 57.4042 30.1485 56.9173L34.5916 52.7361C35.1128 52.2793 35.7905 52.0431 36.4821 52.077C37.1737 52.111 37.8251 52.4126 38.2992 52.9183C38.7733 53.424 39.0331 54.0944 39.0239 54.7882C39.0146 55.482 38.7371 56.1452 38.2497 56.638L33.8066 60.8191C33.3126 61.285 32.6597 61.5439 31.9814 61.5429ZM36.4206 52.7991C35.9409 52.7985 35.4791 52.9814 35.1293 53.3104L30.6862 57.4876C30.3222 57.8318 30.1092 58.3066 30.0937 58.8079C30.0783 59.3092 30.2617 59.7962 30.6038 60.1623C30.9466 60.5268 31.4197 60.7402 31.9193 60.7557C32.4188 60.7711 32.9042 60.5875 33.2688 60.2449L37.7119 56.0677C37.9869 55.808 38.1777 55.4715 38.2598 55.102C38.3418 54.7324 38.3114 54.3466 38.1723 53.9946C38.0332 53.6425 37.7919 53.3404 37.4796 53.1273C37.1673 52.9141 36.7984 52.7998 36.4206 52.7991Z" fill="#093F68"/>
<path d="M34.4184 53.1387C35.3161 52.2535 35.3283 50.8072 34.4457 49.9084C33.563 49.0096 32.1198 48.9986 31.2221 49.8838L26.0998 54.9353C25.2021 55.8206 25.1899 57.2669 26.0725 58.1657C26.9551 59.0645 28.3983 59.0755 29.296 58.1902L34.4184 53.1387Z" fill="#E28362"/>
<path d="M27.7072 59.2419H27.6875C27.3371 59.2427 26.99 59.1736 26.6665 59.0385C26.343 58.9035 26.0497 58.7052 25.8035 58.4552C25.3077 57.9489 25.0325 57.2661 25.0384 56.5568C25.0443 55.8474 25.3308 55.1693 25.8349 54.6713L30.9571 49.617C31.204 49.3564 31.5007 49.1482 31.8295 49.0048C32.1584 48.8615 32.5127 48.7859 32.8713 48.7827C33.2299 48.7794 33.5855 48.8485 33.9169 48.9858C34.2483 49.1231 34.5487 49.3258 34.8003 49.5819C35.0519 49.838 35.2495 50.1422 35.3814 50.4764C35.5132 50.8106 35.5766 51.168 35.5677 51.5273C35.5589 51.8866 35.478 52.2404 35.3298 52.5677C35.1817 52.8949 34.9693 53.189 34.7054 53.4323L29.6029 58.4867C29.3519 58.7311 29.0553 58.9237 28.73 59.0532C28.4047 59.1828 28.0572 59.2469 27.7072 59.2419ZM32.8332 49.6209C32.337 49.6201 31.8604 49.8151 31.5065 50.1637L26.4041 55.2181C26.1372 55.4798 25.954 55.8151 25.8777 56.1814C25.8014 56.5477 25.8355 56.9285 25.9755 57.2754C26.1156 57.6223 26.3553 57.9196 26.6643 58.1297C26.9733 58.3397 27.3377 58.453 27.7111 58.4552C28.2106 58.4553 28.6906 58.2607 29.0495 57.9124L34.1755 52.8581C34.3519 52.684 34.4923 52.4769 34.5887 52.2485C34.6852 52.02 34.7357 51.7748 34.7375 51.5268C34.7394 51.2788 34.6924 51.0328 34.5993 50.803C34.5063 50.5732 34.3689 50.364 34.1952 50.1873C34.0222 50.0089 33.8154 49.8669 33.5869 49.7696C33.3584 49.6724 33.1128 49.6218 32.8646 49.6209H32.8332Z" fill="#093F68"/>
<path d="M62.0666 28.0387C62.0666 28.0387 53.0391 29.439 51.7282 29.2187C50.4172 28.9985 41.8175 25.0179 39.8864 24.3689C37.9553 23.7199 34.2855 25.3641 32.5624 26.8076C30.8393 28.2511 25.9959 33.4313 26.6396 36.5623C27.2833 39.6932 31.2711 37.64 34.3954 33.5415L38.7129 32.3615L56.4656 46.6867L61.2031 46.1517L62.0666 28.0387Z" fill="#E28362"/>
<path d="M56.4656 47.08C56.3757 47.0804 56.2884 47.0498 56.2183 46.9935L38.6108 32.7705L34.623 33.8679C32.2287 36.9753 29.4851 38.7964 27.7738 38.4031C27.2243 38.2772 26.5139 37.8681 26.2549 36.6252C25.5248 33.0852 30.9335 27.6454 32.3111 26.489C34.1206 24.9707 37.9239 23.2833 40.0081 23.9795C40.8559 24.2627 42.9165 25.1595 45.1106 26.1035C47.7835 27.2835 51.108 28.7035 51.7831 28.8215C52.6819 28.9709 58.381 28.1921 61.9881 27.6415C62.046 27.6318 62.1053 27.6353 62.1617 27.6516C62.218 27.6679 62.27 27.6967 62.3138 27.7359C62.357 27.7748 62.3911 27.8229 62.4135 27.8766C62.4359 27.9304 62.4461 27.9884 62.4434 28.0466L61.5799 46.1793C61.5805 46.2765 61.5451 46.3705 61.4806 46.4431C61.4161 46.5158 61.327 46.5619 61.2305 46.5726L56.5088 47.08H56.4656ZM38.701 31.9445C38.7909 31.9442 38.8782 31.9747 38.9483 32.0311L56.5833 46.2933L60.8263 45.8135L61.6505 28.5068C59.6409 28.8136 52.8467 29.8166 51.6653 29.6199C50.9313 29.498 48.4664 28.4399 44.7887 26.8666C42.6221 25.9265 40.5733 25.0376 39.7608 24.7662C37.9592 24.1644 34.4424 25.7653 32.8135 27.1262C31.1258 28.5422 26.4276 33.5965 27.0242 36.4993C27.1655 37.1759 27.4677 37.5574 27.9465 37.6793C29.3399 37.9979 31.9186 36.1689 34.0813 33.3291C34.1333 33.2603 34.2064 33.2105 34.2893 33.1875L38.6068 32.0075C38.6355 31.9868 38.6673 31.9708 38.701 31.9603V31.9445Z" fill="#093F68"/>
<path d="M53.3452 52.331C53.2554 52.3314 53.1681 52.3008 53.098 52.2445L44.8044 45.5067C44.7296 45.4392 44.6834 45.3454 44.6756 45.2448C44.6677 45.1442 44.6988 45.0444 44.7623 44.9661C44.8258 44.8878 44.917 44.8369 45.0169 44.8241C45.1168 44.8112 45.2178 44.8373 45.299 44.897L53.5925 51.6309C53.6326 51.6636 53.6657 51.7039 53.6902 51.7496C53.7146 51.7952 53.7298 51.8452 53.7349 51.8967C53.74 51.9483 53.7349 52.0003 53.7199 52.0498C53.7049 52.0994 53.6803 52.1455 53.6475 52.1855C53.611 52.2306 53.5649 52.267 53.5126 52.2922C53.4604 52.3174 53.4032 52.3306 53.3452 52.331Z" fill="#093F68"/>
<path d="M48.49 55.7333C48.4068 55.7336 48.3257 55.7075 48.2584 55.6586L39.5371 49.2355C39.4543 49.1735 39.3992 49.0814 39.3838 48.9791C39.3684 48.8767 39.3938 48.7724 39.4546 48.6887C39.5158 48.6052 39.6075 48.5492 39.7097 48.533C39.8118 48.5168 39.9162 48.5417 40.0002 48.6022L48.7215 55.0214C48.7888 55.0702 48.8389 55.1392 48.8646 55.2183C48.8903 55.2975 48.8903 55.3828 48.8646 55.4619C48.8388 55.541 48.7887 55.61 48.7214 55.6587C48.6541 55.7075 48.573 55.7336 48.49 55.7333Z" fill="#093F68"/>
<path d="M43.5445 58.4277C43.4472 58.4274 43.3535 58.391 43.2815 58.3254L36.3225 51.9573C36.2506 51.8838 36.2103 51.785 36.2103 51.682C36.2103 51.579 36.2506 51.4802 36.3225 51.4067C36.3929 51.3302 36.4907 51.2848 36.5944 51.2803C36.6981 51.2759 36.7993 51.3129 36.876 51.3831L43.8232 57.7472C43.882 57.8008 43.9232 57.871 43.9414 57.9485C43.9595 58.026 43.9537 58.1073 43.9248 58.1815C43.8959 58.2556 43.8451 58.3193 43.7793 58.3639C43.7136 58.4086 43.6358 58.4322 43.5563 58.4316L43.5445 58.4277Z" fill="#093F68"/>
<path d="M46.7826 36.2201C43.1991 36.2201 38.6893 32.8374 38.4655 32.6801C38.4243 32.6491 38.3896 32.6102 38.3633 32.5658C38.337 32.5214 38.3198 32.4722 38.3125 32.421C38.3052 32.3699 38.308 32.3178 38.3208 32.2678C38.3336 32.2177 38.3561 32.1707 38.387 32.1294C38.418 32.0881 38.4567 32.0533 38.5011 32.0269C38.5454 32.0006 38.5945 31.9833 38.6455 31.976C38.6965 31.9687 38.7485 31.9716 38.7984 31.9844C38.8484 31.9972 38.8953 32.0197 38.9365 32.0507C38.9993 32.0979 45.138 36.7039 48.3251 35.1227C48.4178 35.08 48.5235 35.0752 48.6196 35.1092C48.7158 35.1432 48.795 35.2134 48.8404 35.305C48.8858 35.3965 48.8939 35.5022 48.8629 35.5995C48.832 35.6969 48.7644 35.7784 48.6745 35.8267C48.0829 36.1033 47.4352 36.2379 46.7826 36.2201Z" fill="#093F68"/>
<path d="M17.3491 27.4527L17.0861 29.3053L14.4799 47.7369L14.2562 49.3102L1.75506 48.2993C1.13105 45.5772 0.81636 42.793 0.816981 40C0.810925 34.8098 1.9053 29.6776 4.02763 24.9432L17.3491 27.4527Z" fill="#FD985B"/>
<path d="M14.2562 49.7075H14.2248L1.72363 48.6966C1.64093 48.6896 1.56257 48.6565 1.4998 48.6021C1.43704 48.5477 1.3931 48.4747 1.3743 48.3937C0.743786 45.6405 0.425156 42.8248 0.424453 40C0.413854 34.7537 1.52048 29.5655 3.67043 24.7819C3.70612 24.7006 3.76822 24.6339 3.84661 24.5924C3.92501 24.551 4.01508 24.5374 4.10218 24.5538L17.4197 27.0672C17.5191 27.0855 17.6076 27.1415 17.6668 27.2236C17.7261 27.3056 17.7514 27.4074 17.7376 27.5077L14.6447 49.3692C14.6315 49.463 14.5849 49.5489 14.5135 49.6111C14.4421 49.6732 14.3507 49.7074 14.2562 49.7075ZM2.08865 47.9335L13.9343 48.8933L16.9173 27.7713L4.27488 25.3877C2.24595 29.9905 1.20172 34.9681 1.20945 40C1.20861 42.6683 1.49949 45.3287 2.07688 47.9335H2.08865Z" fill="#093F68"/>
<path d="M8.74546 46.8833C9.66024 46.8833 10.4018 46.1402 10.4018 45.2235C10.4018 44.3068 9.66024 43.5636 8.74546 43.5636C7.83069 43.5636 7.08911 44.3068 7.08911 45.2235C7.08911 46.1402 7.83069 46.8833 8.74546 46.8833Z" fill="#093F68"/>
<path d="M8.74545 47.2727C8.34022 47.2727 7.9441 47.1523 7.60717 46.9267C7.27023 46.7011 7.00763 46.3804 6.85256 46.0053C6.69748 45.6301 6.65691 45.2173 6.73596 44.819C6.81502 44.4207 7.01015 44.0549 7.29669 43.7677C7.58323 43.4806 7.9483 43.285 8.34574 43.2058C8.74317 43.1266 9.15513 43.1672 9.52951 43.3226C9.90389 43.478 10.2239 43.7412 10.449 44.0788C10.6741 44.4165 10.7943 44.8135 10.7943 45.2195C10.7943 45.4892 10.7413 45.7562 10.6383 46.0053C10.5354 46.2544 10.3845 46.4807 10.1942 46.6714C10.004 46.862 9.77809 47.0133 9.52951 47.1164C9.28093 47.2196 9.01451 47.2727 8.74545 47.2727ZM8.74545 43.9569C8.49531 43.9569 8.25081 44.0313 8.04288 44.1707C7.83496 44.31 7.67297 44.508 7.57743 44.7397C7.48189 44.9714 7.45709 45.2262 7.50618 45.472C7.55526 45.7178 7.67602 45.9435 7.85317 46.1204C8.03031 46.2974 8.25588 46.4177 8.5013 46.4661C8.74672 46.5146 9.00096 46.4889 9.23183 46.3925C9.4627 46.296 9.65981 46.133 9.79821 45.9243C9.93661 45.7155 10.0101 45.4702 10.0093 45.2195C10.0083 44.8843 9.87465 44.5632 9.63774 44.3265C9.40083 44.0898 9.07996 43.9569 8.74545 43.9569Z" fill="#093F68"/>
<path d="M74.183 40C74.184 42.7944 73.8693 45.5798 73.245 48.3033L60.7438 49.3141L60.3121 46.2697L57.8197 28.6484L57.6509 27.4684L70.9724 24.9589C73.0925 29.6885 74.1869 34.8151 74.183 40Z" fill="#FD985B"/>
<path d="M60.7438 49.7075C60.6486 49.7084 60.5563 49.6746 60.484 49.6124C60.4118 49.5501 60.3647 49.4637 60.3513 49.3692L57.2584 27.5077C57.2446 27.4074 57.27 27.3056 57.3292 27.2236C57.3884 27.1415 57.477 27.0855 57.5764 27.0672L70.8939 24.5538C70.981 24.5374 71.071 24.551 71.1494 24.5924C71.2278 24.6339 71.2899 24.7006 71.3256 24.7819C73.4769 29.5652 74.5849 34.7534 74.5755 40C74.5694 42.8241 74.2455 45.6385 73.61 48.3898C73.5912 48.4708 73.5472 48.5438 73.4845 48.5982C73.4217 48.6526 73.3433 48.6857 73.2606 48.6927L60.7595 49.7035L60.7438 49.7075ZM58.0945 27.7713L61.0814 48.8933L72.9231 47.9335C73.5005 45.3287 73.7914 42.6683 73.7905 40C73.802 34.969 72.7618 29.9913 70.7369 25.3877L58.0945 27.7713Z" fill="#093F68"/>
<path d="M66.2546 46.8833C67.1693 46.8833 67.9109 46.1402 67.9109 45.2235C67.9109 44.3068 67.1693 43.5636 66.2546 43.5636C65.3398 43.5636 64.5982 44.3068 64.5982 45.2235C64.5982 46.1402 65.3398 46.8833 66.2546 46.8833Z" fill="#093F68"/>
<path d="M66.2545 47.2727C65.8493 47.2727 65.4532 47.1523 65.1163 46.9267C64.7793 46.7011 64.5167 46.3804 64.3617 46.0053C64.2066 45.6301 64.166 45.2173 64.2451 44.819C64.3241 44.4207 64.5193 44.0549 64.8058 43.7677C65.0923 43.4806 65.4574 43.285 65.8548 43.2058C66.2523 43.1266 66.6642 43.1672 67.0386 43.3226C67.413 43.478 67.733 43.7412 67.9581 44.0788C68.1832 44.4165 68.3034 44.8135 68.3034 45.2195C68.3034 45.7641 68.0875 46.2863 67.7033 46.6714C67.3191 47.0564 66.7979 47.2727 66.2545 47.2727ZM66.2545 43.9569C66.0044 43.9569 65.7599 44.0313 65.552 44.1707C65.3441 44.31 65.1821 44.508 65.0865 44.7397C64.991 44.9714 64.9662 45.2262 65.0153 45.472C65.0644 45.7178 65.1851 45.9435 65.3623 46.1204C65.5394 46.2974 65.765 46.4177 66.0104 46.4661C66.2558 46.5146 66.51 46.4889 66.7409 46.3925C66.9718 46.296 67.1689 46.133 67.3073 45.9243C67.4457 45.7155 67.5192 45.4702 67.5184 45.2195C67.5174 44.8843 67.3837 44.5632 67.1468 44.3265C66.9099 44.0898 66.5891 43.9569 66.2545 43.9569Z" fill="#093F68"/>
</svg>
