<svg width="153" height="113" viewBox="0 0 153 113" fill="none" xmlns="http://www.w3.org/2000/svg">
<path d="M95.3633 47.9019V42.1346H117.219V47.9019V56.8836V92.7231H48.5302V47.9019H95.3633Z" fill="#093F68"/>
<path d="M117.225 93.2533H48.5302C48.385 93.2533 48.2457 93.1958 48.143 93.0932C48.0403 92.9907 47.9827 92.8517 47.9827 92.7067V47.88C47.9827 47.735 48.0403 47.596 48.143 47.4935C48.2457 47.3909 48.385 47.3333 48.5302 47.3333H94.8158V42.1127C94.8158 41.9677 94.8735 41.8286 94.9762 41.7261C95.0789 41.6236 95.2181 41.566 95.3633 41.566H117.225C117.37 41.566 117.509 41.6236 117.612 41.7261C117.715 41.8286 117.772 41.9677 117.772 42.1127V92.7067C117.772 92.7785 117.758 92.8496 117.731 92.9159C117.703 92.9822 117.663 93.0425 117.612 93.0932C117.561 93.144 117.501 93.1843 117.435 93.2117C117.368 93.2392 117.297 93.2533 117.225 93.2533ZM49.0777 92.16H116.677V42.6812H95.9108V47.88C95.9108 48.025 95.8531 48.164 95.7505 48.2666C95.6478 48.3691 95.5085 48.4267 95.3633 48.4267H49.0777V92.16Z" fill="#093F68"/>
<path d="M55.7297 83.5773H117.219V32.0431L105.519 21.1043H55.7297V83.5773Z" fill="white"/>
<path d="M117.225 84.124H55.7298C55.5845 84.124 55.4453 84.0664 55.3426 83.9639C55.2399 83.8614 55.1823 83.7224 55.1823 83.5774V21.0934C55.1823 20.9484 55.2399 20.8093 55.3426 20.7068C55.4453 20.6043 55.5845 20.5467 55.7298 20.5467H105.519C105.658 20.5472 105.791 20.5999 105.892 20.6943L117.597 31.6276C117.653 31.6792 117.697 31.7418 117.728 31.8115C117.758 31.8811 117.773 31.9563 117.772 32.0322V83.5774C117.772 83.7224 117.715 83.8614 117.612 83.9639C117.509 84.0664 117.37 84.124 117.225 84.124ZM56.2773 83.0307H116.677V32.2782L105.306 21.64H56.2773V83.0307Z" fill="#093F68"/>
<path d="M48.5302 92.7231H117.22L130.058 54.4127H61.3635L48.5302 92.7231Z" fill="#FD985B"/>
<path d="M117.225 93.2534H48.5301C48.4437 93.2536 48.3585 93.2334 48.2814 93.1944C48.2044 93.1555 48.1376 93.0989 48.0866 93.0292C48.0349 92.9585 48.0009 92.8764 47.9876 92.7898C47.9742 92.7032 47.9819 92.6147 48.01 92.5318L60.8489 54.2214C60.8853 54.1137 60.9544 54.02 61.0467 53.9533C61.1389 53.8867 61.2497 53.8505 61.3635 53.8496H130.058C130.147 53.8452 130.235 53.8624 130.316 53.8997C130.397 53.9371 130.467 53.9934 130.521 54.0639C130.575 54.1344 130.611 54.2169 130.625 54.3043C130.64 54.3918 130.633 54.4815 130.606 54.5657L117.767 92.8816C117.729 92.9938 117.656 93.0908 117.558 93.1578C117.46 93.2248 117.343 93.2584 117.225 93.2534ZM49.2911 92.16H116.831L129.297 54.9867H61.7577L49.2911 92.16Z" fill="#093F68"/>
<path d="M115.867 62.558H101.014C100.868 62.558 100.729 62.5004 100.626 62.3979C100.524 62.2954 100.466 62.1563 100.466 62.0114C100.466 61.8664 100.524 61.7273 100.626 61.6248C100.729 61.5223 100.868 61.4647 101.014 61.4647H115.867C116.012 61.4647 116.152 61.5223 116.254 61.6248C116.357 61.7273 116.415 61.8664 116.415 62.0114C116.415 62.1563 116.357 62.2954 116.254 62.3979C116.152 62.5004 116.012 62.558 115.867 62.558Z" fill="#093F68"/>
<path d="M105.519 21.1043L105.497 32.0431H117.219L105.519 21.1043Z" fill="white"/>
<path d="M117.225 32.5733H105.498C105.425 32.573 105.353 32.5584 105.287 32.5302C105.22 32.5021 105.16 32.461 105.109 32.4093C105.058 32.3583 105.018 32.2977 104.991 32.2311C104.963 32.1645 104.95 32.0932 104.95 32.0212V21.0879C104.95 20.9812 104.981 20.8767 105.039 20.7873C105.097 20.698 105.181 20.6276 105.279 20.5849C105.377 20.5429 105.485 20.5303 105.59 20.5487C105.695 20.5672 105.792 20.6159 105.87 20.6888L117.575 31.6222C117.657 31.6966 117.715 31.7942 117.74 31.9019C117.765 32.0097 117.757 32.1226 117.717 32.2257C117.677 32.3288 117.606 32.4172 117.514 32.4793C117.422 32.5414 117.314 32.5742 117.203 32.5733H117.225ZM106.045 31.48H115.834L106.067 22.3616L106.045 31.48Z" fill="#093F68"/>
<path d="M70.8517 76.4105C70.8296 75.8385 70.6199 75.2896 70.2549 74.8481C69.8899 74.4066 69.3898 74.0971 68.8315 73.9669C67.8569 73.7592 66.8659 73.6007 65.875 73.4476C65.7388 73.4374 65.6092 73.385 65.5042 73.2978C65.3992 73.2106 65.324 73.0929 65.2891 72.9611C64.999 72.1793 64.6705 71.4031 64.3255 70.6377C64.2717 70.546 64.248 70.4397 64.2578 70.3338C64.2676 70.2278 64.3105 70.1277 64.3803 70.0473C64.9771 69.2328 65.5793 68.4073 66.1268 67.5709C66.4456 67.094 66.5965 66.5247 66.5559 65.9527C66.5153 65.3808 66.2854 64.8385 65.9023 64.4112C64.999 63.4217 64.0299 62.4869 63.0827 61.5412C62.6158 61.0136 61.9646 60.6841 61.2623 60.6201C60.5601 60.5561 59.8599 60.7624 59.305 61.1968C58.5604 61.7107 57.8267 62.23 57.115 62.7657C57.0351 62.8363 56.9351 62.8801 56.829 62.8909C56.7229 62.9017 56.6161 62.8789 56.5237 62.8259C55.686 62.4541 54.8428 62.1097 53.9887 61.7817C53.8851 61.7552 53.7926 61.6964 53.7247 61.6138C53.6567 61.5312 53.6169 61.4292 53.611 61.3225C53.4686 60.4205 53.3208 59.5185 53.162 58.622C53.0699 57.9875 52.7573 57.4054 52.2789 56.9777C51.8005 56.55 51.1868 56.3039 50.545 56.2823C49.1543 56.2495 47.7637 56.2495 46.373 56.2823C45.7805 56.2939 45.209 56.5039 44.7503 56.8786C44.2916 57.2533 43.9723 57.771 43.8436 58.3487C43.6191 59.3545 43.4658 60.3823 43.2961 61.4045C43.2827 61.509 43.2395 61.6074 43.1715 61.6879C43.1035 61.7684 43.0137 61.8275 42.9128 61.8583C42.1025 62.1808 41.2703 62.5252 40.4929 62.886C40.4079 62.9361 40.3094 62.9583 40.2112 62.9495C40.1129 62.9406 40.02 62.9012 39.9454 62.8368C39.1405 62.2464 38.3357 61.6505 37.5035 61.0984C37.0238 60.7716 36.4484 60.6146 35.869 60.6522C35.2895 60.6899 34.7393 60.9201 34.3061 61.3061C33.2494 62.2737 32.2147 63.2851 31.2401 64.3347C30.7785 64.8016 30.505 65.4217 30.4717 66.077C30.4384 66.7322 30.6476 67.3768 31.0594 67.888C31.6069 68.6697 32.1544 69.4351 32.7019 70.2168C32.771 70.344 32.7868 70.4935 32.7457 70.6323C32.4063 71.5069 32.0541 72.3743 31.6891 73.2344C31.6555 73.2997 31.6091 73.3575 31.5526 73.4044C31.4962 73.4514 31.4309 73.4865 31.3606 73.5077C30.4627 73.6717 29.5593 73.8193 28.6559 73.9615C28.0179 74.0332 27.4254 74.3265 26.9821 74.7902C26.5387 75.2538 26.2727 75.8583 26.2305 76.498C26.1867 77.9467 26.1867 79.4008 26.2305 80.8713C26.2561 81.4377 26.4662 81.9801 26.8289 82.4163C27.1916 82.8524 27.687 83.1584 28.2398 83.2876C29.2746 83.5227 30.3258 83.6812 31.3715 83.8343C31.4719 83.843 31.5672 83.8823 31.6445 83.9468C31.7219 84.0114 31.7775 84.098 31.804 84.1951C32.1325 85.0205 32.4829 85.8351 32.8443 86.6441C32.8988 86.7275 32.9236 86.8268 32.9147 86.926C32.9058 87.0252 32.8636 87.1185 32.795 87.1908C32.2475 87.9397 31.7 88.6832 31.1525 89.4485C30.7398 89.9892 30.5437 90.6639 30.6024 91.3411C30.6611 92.0184 30.9705 92.6494 31.4701 93.1112C32.3406 93.9968 33.2166 94.8769 34.109 95.7461C34.5797 96.2645 35.2315 96.5829 35.9302 96.6358C36.6289 96.6887 37.3213 96.472 37.8649 96.0304C38.6204 95.4837 39.3814 94.9699 40.126 94.4177C40.1953 94.3614 40.2801 94.3275 40.3691 94.3207C40.4582 94.3139 40.5472 94.3344 40.6243 94.3795C41.3962 94.7129 42.1682 95.0464 42.9566 95.3361C43.0764 95.3707 43.1823 95.4421 43.259 95.5403C43.3357 95.6385 43.3793 95.7584 43.3837 95.8828C43.5205 96.7684 43.6684 97.6595 43.8271 98.5451C43.9091 99.1628 44.2024 99.7332 44.6574 100.16C45.1124 100.586 45.7011 100.842 46.3237 100.885C47.7856 100.934 49.2529 100.929 50.7037 100.885C51.2762 100.856 51.8236 100.641 52.2624 100.273C52.7013 99.9051 53.0076 99.4038 53.1346 98.8457C53.3482 97.8563 53.5015 96.8559 53.6821 95.8609C53.6889 95.742 53.7326 95.628 53.8072 95.535C53.8817 95.4419 53.9835 95.3743 54.0982 95.3416C54.914 95.03 55.7407 94.6911 56.5291 94.3357C56.6144 94.2856 56.7134 94.2638 56.8118 94.2736C56.9103 94.2835 57.0031 94.3244 57.0766 94.3904C57.8267 94.9371 58.5823 95.4837 59.3378 96.0304C59.8663 96.4129 60.5089 96.6056 61.161 96.5771C61.7738 96.5785 62.3631 96.3412 62.8035 95.9156C63.7616 95.0136 64.6869 94.0733 65.6231 93.144C66.1627 92.6728 66.4992 92.0117 66.5624 91.2987C66.6257 90.5858 66.4108 89.8759 65.9626 89.3173C65.4479 88.5885 64.9241 87.8596 64.3912 87.1307C64.3243 87.0576 64.2828 86.9649 64.273 86.8664C64.2631 86.7679 64.2854 86.6688 64.3365 86.584C64.6978 85.7695 65.0373 84.944 65.3603 84.124C65.394 84.023 65.4565 83.934 65.5402 83.868C65.6238 83.8019 65.7249 83.7617 65.8312 83.7523C66.7345 83.6156 67.6379 83.4625 68.5358 83.3095C69.1718 83.2243 69.7577 82.9187 70.191 82.4461C70.6243 81.9734 70.8775 81.3638 70.9065 80.7237C70.8955 79.2587 70.8901 77.8319 70.8517 76.4105ZM48.5137 88.1912C46.6082 88.1869 44.7466 87.6185 43.1645 86.558C41.5824 85.4974 40.3508 83.9923 39.6253 82.2329C38.8998 80.4735 38.7131 78.5388 39.0887 76.6734C39.4643 74.8081 40.3854 73.0958 41.7355 71.7531C43.0857 70.4104 44.8042 69.4975 46.6739 69.1299C48.5436 68.7622 50.4804 68.9564 52.2396 69.6878C53.9988 70.4191 55.5013 71.6549 56.5572 73.2388C57.6131 74.8227 58.1749 76.6836 58.1716 78.5863C58.1658 81.1385 57.1452 83.584 55.3342 85.3851C53.5231 87.1862 51.0699 88.1956 48.5137 88.1912Z" fill="#F56132" stroke="#093F68" stroke-width="2" stroke-linecap="round" stroke-linejoin="round"/>
<path d="M49.877 47.2295C50.0478 46.8815 50.0995 46.4872 50.0244 46.1071C49.9492 45.7269 49.7513 45.3819 49.4609 45.1248C48.9517 44.682 48.4097 44.272 47.8731 43.862C47.7941 43.8126 47.7328 43.7393 47.6984 43.6528C47.6639 43.5663 47.658 43.471 47.6815 43.3809C47.7636 42.8343 47.8184 42.2548 47.8622 41.6863C47.8587 41.6147 47.878 41.5439 47.9174 41.484C47.9567 41.4241 48.0141 41.3781 48.0812 41.3528C48.7053 41.0576 49.3295 40.7733 49.9263 40.4453C50.2707 40.2635 50.5451 39.9728 50.7066 39.6187C50.868 39.2646 50.9075 38.8671 50.8187 38.4883C50.5997 37.6081 50.3259 36.7444 50.0686 35.8697C49.9609 35.4055 49.6802 34.9997 49.2836 34.7347C48.887 34.4697 48.4042 34.3653 47.9334 34.4429C47.3256 34.5085 46.7179 34.5851 46.1102 34.6671C46.0399 34.6821 45.9667 34.6755 45.9003 34.6482C45.8338 34.6208 45.7772 34.5741 45.7379 34.514C45.3729 34.022 44.9842 33.5409 44.5717 33.0708C44.5185 33.0221 44.4819 32.9578 44.4672 32.8872C44.4524 32.8166 44.4603 32.7431 44.4896 32.6772C44.6976 32.0923 44.9057 31.5073 45.1028 30.9224C45.2518 30.514 45.2522 30.0663 45.1041 29.6576C44.956 29.2489 44.6687 28.9052 44.2925 28.6865C43.4767 28.2164 42.65 27.7681 41.8068 27.3363C41.4483 27.1491 41.037 27.0882 40.6395 27.1636C40.242 27.2391 39.8816 27.4463 39.6168 27.7517C39.1569 28.2984 38.7354 28.8451 38.3028 29.3917C38.2624 29.4518 38.2046 29.4982 38.1371 29.5245C38.0696 29.5509 37.9956 29.5561 37.9251 29.5393C37.3392 29.4683 36.7425 29.4136 36.1512 29.3699C36.0834 29.3715 36.0167 29.3525 35.96 29.3154C35.9032 29.2783 35.8592 29.2249 35.8336 29.1621C35.5489 28.5444 35.2861 27.9321 34.9467 27.3363C34.766 26.9875 34.4743 26.7085 34.1175 26.5432C33.7607 26.378 33.3591 26.3358 32.9757 26.4233C32.034 26.6584 31.0923 26.9263 30.167 27.2379C29.7511 27.3769 29.3998 27.6619 29.1783 28.0399C28.9568 28.4178 28.8802 28.8632 28.9625 29.2933C29.0282 29.9329 29.1158 30.5725 29.1815 31.2121C29.1833 31.2607 29.1751 31.3091 29.1571 31.3543C29.1392 31.3995 29.1121 31.4404 29.0775 31.4745C28.5957 31.8845 28.1029 32.2891 27.6047 32.6827C27.5198 32.7353 27.4184 32.7548 27.32 32.7373C26.7342 32.546 26.1483 32.3383 25.5625 32.1305C25.1587 31.9677 24.7103 31.9518 24.2959 32.0858C23.8816 32.2197 23.5276 32.4948 23.2959 32.8631C22.8031 33.7049 22.3323 34.5741 21.8888 35.4488C21.7196 35.7939 21.6681 36.1849 21.7422 36.5619C21.8164 36.939 22.0121 37.2815 22.2994 37.5371C22.8469 38.0072 23.3944 38.4445 23.9802 38.8873C24.0372 38.9239 24.0814 38.9771 24.1069 39.0398C24.1324 39.1024 24.1379 39.1713 24.1226 39.2372C24.0459 39.8385 23.9912 40.4344 23.9474 41.0357C23.9489 41.0999 23.9302 41.163 23.8938 41.216C23.8574 41.2689 23.8053 41.3092 23.7448 41.3309C23.1973 41.5988 22.6115 41.8776 22.0476 42.1509C21.6279 42.3399 21.2936 42.6778 21.1094 43.099C20.9253 43.5203 20.9045 43.9948 21.0511 44.4305C21.2811 45.2396 21.5165 46.0705 21.7683 46.8523C21.8807 47.3122 22.1651 47.7118 22.5632 47.9689C22.9613 48.2261 23.4428 48.3214 23.9091 48.2353C24.5332 48.1643 25.1574 48.0932 25.7815 48.0112C25.8399 47.9981 25.901 48.0037 25.9561 48.0273C26.0111 48.0508 26.0573 48.0911 26.0881 48.1424C26.4385 48.5907 26.7889 49.0389 27.1831 49.4653C27.2431 49.5249 27.2831 49.6015 27.2978 49.6847C27.3125 49.7679 27.3011 49.8535 27.2652 49.93C27.0517 50.504 26.8546 51.0835 26.663 51.6629C26.511 52.0551 26.5005 52.4879 26.6334 52.887C26.7663 53.286 27.0342 53.6264 27.3912 53.8496C28.2453 54.3525 29.1158 54.8263 30.0027 55.2709C30.3526 55.4392 30.7479 55.4887 31.1285 55.4117C31.5091 55.3347 31.854 55.1355 32.1106 54.8445C32.5596 54.3252 32.9702 53.7785 33.3918 53.2373C33.4354 53.1697 33.4985 53.1168 33.5727 53.0856C33.647 53.0544 33.7289 53.0463 33.8079 53.0624C34.3937 53.1444 34.9905 53.2045 35.5818 53.2537C35.6461 53.2522 35.7092 53.2709 35.7623 53.3072C35.8153 53.3435 35.8556 53.3956 35.8774 53.456C36.1457 54.0027 36.4249 54.5821 36.6987 55.1452C36.8871 55.5445 37.2056 55.8683 37.602 56.0636C37.9646 56.2576 38.3882 56.3046 38.7846 56.1948C39.6442 55.9652 40.5038 55.7083 41.3579 55.4568C41.8363 55.3516 42.2549 55.0644 42.5247 54.6562C42.7946 54.2479 42.8945 53.7507 42.8033 53.2701C42.7376 52.6633 42.6609 52.0565 42.5843 51.4497C42.5701 51.3876 42.5757 51.3227 42.6002 51.2639C42.6247 51.2051 42.667 51.1554 42.7212 51.1217C43.1975 50.7555 43.6683 50.3783 44.1282 49.9901C44.1788 49.9376 44.2447 49.9024 44.3165 49.8897C44.3883 49.8769 44.4623 49.8872 44.5279 49.9191L46.2799 50.5313C46.6866 50.6859 47.1348 50.6928 47.5461 50.5509C47.9574 50.409 48.3057 50.1273 48.5301 49.7551C48.99 48.9351 49.439 48.0932 49.877 47.2295ZM32.7621 47.0272C31.6297 46.4092 30.7061 45.4698 30.1082 44.3278C29.5104 43.1858 29.265 41.8925 29.4033 40.6113C29.5415 39.33 30.0571 38.1185 30.8848 37.1299C31.7125 36.1412 32.8153 35.4198 34.0536 35.0568C35.2919 34.6938 36.6102 34.7055 37.8419 35.0906C39.0735 35.4756 40.1631 36.2166 40.9731 37.2199C41.783 38.2231 42.2768 39.4437 42.392 40.7271C42.5073 42.0106 42.2389 43.2994 41.6207 44.4305C40.7891 45.9461 39.3896 47.0705 37.729 47.5572C36.0684 48.044 34.2822 47.8534 32.7621 47.0272Z" fill="#FFBC0E" stroke="#093F68" stroke-width="2" stroke-linecap="round" stroke-linejoin="round"/>
<path d="M101.014 29.6542H64.8785C64.7333 29.6542 64.594 29.5966 64.4914 29.494C64.3887 29.3915 64.331 29.2525 64.331 29.1075C64.331 28.9625 64.3887 28.8235 64.4914 28.7209C64.594 28.6184 64.7333 28.5608 64.8785 28.5608H101.014C101.159 28.5608 101.298 28.6184 101.401 28.7209C101.503 28.8235 101.561 28.9625 101.561 29.1075C101.561 29.2525 101.503 29.3915 101.401 29.494C101.298 29.5966 101.159 29.6542 101.014 29.6542Z" fill="#DFEAEF"/>
<path d="M112.998 36.2962H64.8566C64.7114 36.2962 64.5721 36.2386 64.4694 36.136C64.3668 36.0335 64.3091 35.8945 64.3091 35.7495C64.3091 35.6045 64.3668 35.4655 64.4694 35.3629C64.5721 35.2604 64.7114 35.2028 64.8566 35.2028H112.998C113.143 35.2028 113.283 35.2604 113.385 35.3629C113.488 35.4655 113.546 35.6045 113.546 35.7495C113.546 35.8945 113.488 36.0335 113.385 36.136C113.283 36.2386 113.143 36.2962 112.998 36.2962Z" fill="#DFEAEF"/>
<path d="M112.998 42.96H68.8095C68.6643 42.96 68.5251 42.9024 68.4224 42.7999C68.3197 42.6974 68.262 42.5583 68.262 42.4133C68.262 42.2684 68.3197 42.1293 68.4224 42.0268C68.5251 41.9243 68.6643 41.8667 68.8095 41.8667H112.998C113.143 41.8667 113.283 41.9243 113.385 42.0268C113.488 42.1293 113.546 42.2684 113.546 42.4133C113.546 42.5583 113.488 42.6974 113.385 42.7999C113.283 42.9024 113.143 42.96 112.998 42.96Z" fill="#DFEAEF"/>
<path d="M102.618 49.5801H64.8402C64.695 49.5801 64.5557 49.5226 64.453 49.42C64.3503 49.3175 64.2927 49.1785 64.2927 49.0335C64.2927 48.8885 64.3503 48.7495 64.453 48.6469C64.5557 48.5444 64.695 48.4868 64.8402 48.4868H102.618C102.763 48.4868 102.902 48.5444 103.005 48.6469C103.107 48.7495 103.165 48.8885 103.165 49.0335C103.165 49.1785 103.107 49.3175 103.005 49.42C102.902 49.5226 102.763 49.5801 102.618 49.5801Z" fill="#DFEAEF"/>
</svg>
