<svg width="125" height="39" viewBox="0 0 125 39" fill="none" xmlns="http://www.w3.org/2000/svg">
    <path d="M0 32.0806H1.33237L5.02665 37.362L8.72093 32.0806H10.0533V38.3901H9.20543V32.8466H9.18524L5.34965 38.3901H4.74403L0.908431 32.8466H0.888244V38.3901H0.0403756V32.0806H0Z"
          fill="black"/>
    <path d="M23.4172 32.0806H29.6147V32.7862H24.265V34.802H29.3926V35.5075H24.265V37.7047H29.6349V38.4103H23.397V32.0806H23.4172Z"
          fill="black"/>
    <path d="M42.6763 32.0806H47.7837C49.9033 32.0806 50.4686 32.7458 50.4686 35.2253C50.4686 37.5435 49.8832 38.3699 47.7433 38.3699H42.6763V32.0806ZM49.6005 34.9229C49.6005 33.1087 49.0353 32.766 47.9855 32.766H43.5241V37.6846H47.8644C48.894 37.6846 49.6207 37.4628 49.6207 35.568V34.9229H49.6005Z"
          fill="black"/>
    <path d="M63.7515 32.0806H64.5994V38.3901H63.7515V32.0806Z" fill="black"/>
    <path d="M77.9031 34.3585C77.9031 32.766 78.4481 32 80.1439 32H83.4142C84.9686 32 85.3926 32.7257 85.3926 33.5723V34.1166H84.6456V33.8344C84.6456 32.766 83.9795 32.7055 83.1921 32.7055H80.2246C79.3969 32.7055 78.7509 32.9474 78.7509 34.036V36.3945C78.7509 37.483 79.4171 37.7249 80.2246 37.7249H83.2123C84.363 37.7249 84.686 37.483 84.686 36.6363V36.2533H85.4935V36.6767C85.4935 37.8257 85.1301 38.4304 83.3537 38.4304H80.1237C78.4077 38.4304 77.8829 37.6644 77.8829 36.0719V34.3585H77.9031Z"
          fill="black"/>
    <path d="M101.704 32.0806H102.774L106.528 38.3901H105.539L104.752 37.0597H99.7051L98.9178 38.3901H97.9488L101.704 32.0806ZM102.229 32.766L100.109 36.334H104.348L102.229 32.766Z"
          fill="black"/>
    <path d="M119.247 32.0806H120.095V37.6846H125V38.3901H119.247V32.0806Z" fill="black"/>
    <path d="M24.7699 10C25.9003 11.3306 26.405 12.7027 26.405 14.1372C26.405 17.3597 23.8614 20 20.7324 20H0V0H20.7324C23.8614 0 26.405 2.61954 26.405 5.842C26.405 7.25572 25.8802 8.64865 24.7699 10ZM20.7324 8.23285C22.0244 8.23285 23.0539 7.17256 23.0539 5.842C23.0539 4.55302 22.0042 3.49272 20.7324 3.49272H3.39147V8.23285H20.7324ZM20.7324 16.4865C22.0244 16.4865 23.0539 15.4262 23.0539 14.1372C23.0539 12.8274 22.0042 11.7464 20.7324 11.7464H3.39147V16.4865H20.7324Z"
          fill="#FF7300"/>
    <path d="M50.771 16.5489C52.8705 16.5489 54.1826 15.9875 54.1826 13.4304V6.36175C54.1826 3.80458 52.8705 3.45114 50.771 3.45114H38.1337C36.0342 3.45114 34.722 3.80458 34.722 6.36175V13.4304C34.722 15.9875 36.0342 16.5489 38.1337 16.5489H50.771ZM38.2952 20C33.0869 20 31.3306 17.4012 31.3306 12.5156V7.56757C31.3306 2.68191 33.0667 0 38.2952 0H50.6095C55.8178 0 57.5741 2.68191 57.5741 7.56757V12.5156C57.5741 17.4012 55.838 20 50.6095 20H38.2952Z"
          fill="#FF7300"/>
    <path d="M72.3717 20H68.1526L60.8246 0H64.8621L70.3126 14.9064L75.844 0H79.8612L85.332 14.9688L90.8431 0H94.8806L87.5526 20H83.3335L77.8627 5.25988L72.3717 20Z"
          fill="#FF7300"/>
    <path d="M125 5.842V20H121.649V15.842H101.784V20H98.3929V5.842C98.3929 2.39085 100.735 0 104.066 0H119.327C122.618 0 125 2.45322 125 5.842ZM101.764 12.3909H121.629V5.842C121.629 4.36591 120.74 3.49272 119.307 3.49272H104.045C102.572 3.49272 101.764 4.34512 101.764 5.842V12.3909Z"
          fill="#FF7300"/>
</svg>
