<svg width="125" height="118" viewBox="0 0 125 118" fill="none" xmlns="http://www.w3.org/2000/svg">
<path d="M107.344 74.9772H17.6557C16.6945 74.9772 15.9153 75.7785 15.9153 76.7669V76.7983C15.9153 77.7867 16.6945 78.588 17.6557 78.588H107.344C108.305 78.588 109.085 77.7867 109.085 76.7983V76.7669C109.085 75.7785 108.305 74.9772 107.344 74.9772Z" fill="white"/>
<path d="M107.344 78.9813H17.6557C17.0886 78.9813 16.5448 78.7497 16.1438 78.3373C15.7428 77.925 15.5175 77.3657 15.5175 76.7826C15.5175 76.1995 15.7428 75.6402 16.1438 75.2279C16.5448 74.8155 17.0886 74.5839 17.6557 74.5839H107.344C107.911 74.5839 108.455 74.8155 108.856 75.2279C109.257 75.6402 109.482 76.1995 109.482 76.7826C109.482 77.3657 109.257 77.925 108.856 78.3373C108.455 78.7497 107.911 78.9813 107.344 78.9813ZM17.6557 75.3705C17.2915 75.3705 16.9422 75.5193 16.6847 75.7841C16.4272 76.0489 16.2825 76.4081 16.2825 76.7826C16.2825 77.1571 16.4272 77.5163 16.6847 77.7811C16.9422 78.0459 17.2915 78.1947 17.6557 78.1947H107.344C107.708 78.1947 108.058 78.0459 108.315 77.7811C108.573 77.5163 108.717 77.1571 108.717 76.7826C108.717 76.4081 108.573 76.0489 108.315 75.7841C108.058 75.5193 107.708 75.3705 107.344 75.3705H17.6557Z" fill="#093F68"/>
<path d="M79.1119 38.4601V63.7829C79.1119 64.3682 78.8859 64.9294 78.4834 65.3432C78.081 65.7571 77.5352 65.9895 76.9661 65.9895H41.4625C41.1807 65.9895 40.9016 65.9325 40.6413 65.8216C40.381 65.7107 40.1444 65.5481 39.9451 65.3432C39.7459 65.1383 39.5878 64.8951 39.48 64.6274C39.3722 64.3597 39.3167 64.0727 39.3167 63.7829V38.4601C39.3167 38.1704 39.3722 37.8834 39.48 37.6157C39.5878 37.348 39.7459 37.1047 39.9451 36.8998C40.1444 36.6949 40.381 36.5324 40.6413 36.4215C40.9016 36.3106 41.1807 36.2535 41.4625 36.2535H76.9738C77.5415 36.2556 78.0854 36.489 78.4862 36.9026C78.8869 37.3162 79.1119 37.8763 79.1119 38.4601Z" fill="#FD985B"/>
<path d="M76.9661 66.3829H41.4625C41.1174 66.3816 40.7761 66.3085 40.4592 66.1678C40.1423 66.0272 39.8565 65.8221 39.6188 65.5647C39.178 65.0823 38.9331 64.4449 38.9341 63.7829V38.4601C38.9352 37.7709 39.2019 37.1102 39.6758 36.6229C40.1497 36.1355 40.7922 35.8612 41.4625 35.8602H76.9738C77.6443 35.8602 78.2874 36.1341 78.7616 36.6217C79.2357 37.1093 79.5021 37.7706 79.5021 38.4601V63.7829C79.5021 64.125 79.4364 64.4638 79.3089 64.7797C79.1814 65.0957 78.9945 65.3826 78.7589 65.6242C78.5233 65.8657 78.2437 66.057 77.936 66.1872C77.6284 66.3174 77.2988 66.3839 76.9661 66.3829ZM41.4625 36.6469C40.9951 36.6479 40.5472 36.8393 40.2167 37.1791C39.8863 37.5189 39.7002 37.9795 39.6991 38.4601V63.7829C39.697 64.2439 39.8684 64.6879 40.1773 65.0219C40.3422 65.2025 40.5413 65.3466 40.7623 65.4453C40.9833 65.5441 41.2215 65.5954 41.4625 65.5962H76.9738C77.2053 65.5962 77.4346 65.5493 77.6486 65.4582C77.8625 65.3671 78.0569 65.2335 78.2206 65.0651C78.3844 64.8967 78.5143 64.6968 78.6029 64.4768C78.6915 64.2568 78.7371 64.0211 78.7371 63.7829V38.4601C78.7371 37.9792 78.5513 37.518 78.2206 37.178C77.8899 36.8379 77.4414 36.6469 76.9738 36.6469H41.4625Z" fill="#093F68"/>
<path d="M76.9661 38.2831H41.4548V59.9165H76.9661V38.2831Z" fill="white"/>
<path d="M76.9662 60.3098H41.4625C41.3611 60.3098 41.2638 60.2684 41.192 60.1946C41.1203 60.1208 41.08 60.0208 41.08 59.9165V38.2831C41.08 38.1788 41.1203 38.0788 41.192 38.005C41.2638 37.9312 41.3611 37.8898 41.4625 37.8898H76.9738C77.0752 37.8898 77.1725 37.9312 77.2443 38.005C77.316 38.0788 77.3563 38.1788 77.3563 38.2831V59.9165C77.3563 59.9688 77.3462 60.0206 77.3265 60.0688C77.3068 60.1171 77.2779 60.1608 77.2416 60.1974C77.2052 60.234 77.1622 60.2629 77.1149 60.2822C77.0676 60.3015 77.017 60.3109 76.9662 60.3098ZM41.8374 59.5231H76.5837V38.6765H41.845L41.8374 59.5231Z" fill="#093F68"/>
<path d="M66.784 74.9772H51.637L53.2397 65.9895H65.1813L66.784 74.9772Z" fill="#FD985B"/>
<path d="M66.784 75.3705H51.637C51.5815 75.37 51.5267 75.3571 51.4765 75.3327C51.4263 75.3082 51.3819 75.2728 51.3463 75.2289C51.3101 75.1848 51.2838 75.133 51.2693 75.0773C51.2547 75.0216 51.2523 74.9632 51.2622 74.9064L52.8648 65.9187C52.8811 65.8271 52.9285 65.7444 52.9986 65.6853C53.0686 65.6263 53.1568 65.5947 53.2473 65.5962H65.1775C65.2681 65.5947 65.3562 65.6263 65.4263 65.6853C65.4963 65.7444 65.5437 65.8271 65.56 65.9187L67.1589 74.9064C67.1692 74.9629 67.1674 75.0211 67.1535 75.0768C67.1396 75.1326 67.114 75.1845 67.0785 75.2289C67.0426 75.2733 66.9975 75.309 66.9466 75.3335C66.8957 75.358 66.8402 75.3706 66.784 75.3705ZM52.096 74.5839H66.325L64.8639 66.3829H53.561L52.096 74.5839Z" fill="#093F68"/>
<path d="M58.9351 58.0914H46.4083C46.3068 58.0914 46.2095 58.05 46.1378 57.9762C46.0661 57.9024 46.0258 57.8024 46.0258 57.6981V47.7035C46.0258 47.5992 46.0661 47.4991 46.1378 47.4254C46.2095 47.3516 46.3068 47.3102 46.4083 47.3102H58.9351C59.0366 47.3102 59.1339 47.3516 59.2056 47.4254C59.2773 47.4991 59.3176 47.5992 59.3176 47.7035V57.6981C59.3176 57.8024 59.2773 57.9024 59.2056 57.9762C59.1339 58.05 59.0366 58.0914 58.9351 58.0914ZM46.7908 57.3047H58.5526V48.0968H46.7908V57.3047Z" fill="#DFEAEF"/>
<path d="M46.412 56.0539C46.33 56.0541 46.2501 56.0272 46.1841 55.9771C46.118 55.927 46.0694 55.8564 46.0454 55.7757C46.0214 55.695 46.0233 55.6085 46.0507 55.529C46.0782 55.4495 46.1297 55.3812 46.1978 55.3341L50.8796 52.1442C50.9588 52.0899 51.0547 52.0679 51.1488 52.0825C51.2428 52.097 51.3283 52.1471 51.3884 52.2229L52.8074 54.0086L56.3303 50.5276C56.4019 50.4543 56.4989 50.4132 56.5999 50.4132C56.701 50.4132 56.7979 50.4543 56.8696 50.5276C56.9054 50.5642 56.9339 50.6077 56.9533 50.6556C56.9727 50.7035 56.9827 50.7549 56.9827 50.8069C56.9827 50.8588 56.9727 50.9102 56.9533 50.9581C56.9339 51.0061 56.9054 51.0496 56.8696 51.0861L53.0446 54.8661C53.006 54.9036 52.9602 54.9324 52.9101 54.9506C52.8601 54.9689 52.8069 54.9763 52.7539 54.9723C52.7016 54.969 52.6505 54.9548 52.6038 54.9305C52.5571 54.9061 52.5157 54.8721 52.4823 54.8307L51.025 52.9977L46.6301 55.9871C46.5657 56.0316 46.4896 56.0549 46.412 56.0539Z" fill="#DFEAEF"/>
<path d="M56.927 52.982H56.904C56.8538 52.979 56.8046 52.9658 56.7593 52.9432C56.714 52.9206 56.6735 52.889 56.6401 52.8503C56.6067 52.8116 56.581 52.7664 56.5646 52.7175C56.5482 52.6685 56.5414 52.6167 56.5445 52.5651L56.6669 50.6456H54.7544C54.6529 50.6456 54.5557 50.6041 54.4839 50.5304C54.4122 50.4566 54.3719 50.3566 54.3719 50.2523C54.3719 50.1479 54.4122 50.0479 54.4839 49.9741C54.5557 49.9004 54.6529 49.8589 54.7544 49.8589H57.0494C57.1016 49.8588 57.1533 49.8697 57.2013 49.8909C57.2492 49.9122 57.2925 49.9433 57.3283 49.9823C57.3641 50.0214 57.3918 50.0676 57.4096 50.1181C57.4274 50.1686 57.435 50.2222 57.4319 50.2759L57.2865 52.6359C57.2758 52.7279 57.2339 52.813 57.1681 52.8763C57.1024 52.9397 57.017 52.9771 56.927 52.982Z" fill="#DFEAEF"/>
<path d="M72.0089 49.1942H62.1749C62.0734 49.1942 61.9761 49.1528 61.9044 49.079C61.8327 49.0052 61.7924 48.9052 61.7924 48.8009C61.7924 48.6965 61.8327 48.5965 61.9044 48.5227C61.9761 48.449 62.0734 48.4075 62.1749 48.4075H72.0089C72.1104 48.4075 72.2077 48.449 72.2794 48.5227C72.3512 48.5965 72.3914 48.6965 72.3914 48.8009C72.3914 48.9052 72.3512 49.0052 72.2794 49.079C72.2077 49.1528 72.1104 49.1942 72.0089 49.1942Z" fill="#DFEAEF"/>
<path d="M70.0391 51.4441H62.1749C62.0734 51.4441 61.9761 51.4026 61.9044 51.3289C61.8327 51.2551 61.7924 51.155 61.7924 51.0507C61.7924 50.9464 61.8327 50.8464 61.9044 50.7726C61.9761 50.6988 62.0734 50.6574 62.1749 50.6574H70.0391C70.1405 50.6574 70.2378 50.6988 70.3095 50.7726C70.3813 50.8464 70.4216 50.9464 70.4216 51.0507C70.4216 51.155 70.3813 51.2551 70.3095 51.3289C70.2378 51.4026 70.1405 51.4441 70.0391 51.4441Z" fill="#DFEAEF"/>
<path d="M72.0089 54.3154H62.1749C62.0734 54.3154 61.9761 54.274 61.9044 54.2002C61.8327 54.1264 61.7924 54.0264 61.7924 53.9221C61.7924 53.8177 61.8327 53.7177 61.9044 53.6439C61.9761 53.5702 62.0734 53.5287 62.1749 53.5287H72.0089C72.1104 53.5287 72.2077 53.5702 72.2794 53.6439C72.3512 53.7177 72.3914 53.8177 72.3914 53.9221C72.3914 54.0264 72.3512 54.1264 72.2794 54.2002C72.2077 54.274 72.1104 54.3154 72.0089 54.3154Z" fill="#DFEAEF"/>
<path d="M67.637 56.5613H62.1749C62.0734 56.5613 61.9761 56.5199 61.9044 56.4461C61.8327 56.3724 61.7924 56.2723 61.7924 56.168C61.7924 56.0637 61.8327 55.9636 61.9044 55.8899C61.9761 55.8161 62.0734 55.7747 62.1749 55.7747H67.637C67.7384 55.7747 67.8357 55.8161 67.9074 55.8899C67.9792 55.9636 68.0195 56.0637 68.0195 56.168C68.0195 56.2723 67.9792 56.3724 67.9074 56.4461C67.8357 56.5199 67.7384 56.5613 67.637 56.5613Z" fill="#DFEAEF"/>
<path d="M72.009 46.2678H46.4083C46.3068 46.2678 46.2095 46.2264 46.1378 46.1526C46.0661 46.0788 46.0258 45.9788 46.0258 45.8745V43.2667C46.0258 43.1624 46.0661 43.0623 46.1378 42.9885C46.2095 42.9148 46.3068 42.8733 46.4083 42.8733H72.009C72.1104 42.8733 72.2077 42.9148 72.2795 42.9885C72.3512 43.0623 72.3915 43.1624 72.3915 43.2667V45.8941C72.3866 45.995 72.3441 46.0901 72.2729 46.1596C72.2017 46.2292 72.1072 46.2679 72.009 46.2678ZM46.7908 45.4811H71.6265V43.66H46.7908V45.4811Z" fill="#DFEAEF"/>
<path d="M59.2105 63.6885C59.7238 63.6885 60.14 63.2606 60.14 62.7327C60.14 62.2049 59.7238 61.7769 59.2105 61.7769C58.6971 61.7769 58.281 62.2049 58.281 62.7327C58.281 63.2606 58.6971 63.6885 59.2105 63.6885Z" fill="#093F68"/>
<path d="M59.2105 64.0858C58.9503 64.0858 58.6959 64.0065 58.4795 63.8578C58.2631 63.7091 58.0945 63.4978 57.9949 63.2505C57.8953 63.0033 57.8692 62.7312 57.92 62.4688C57.9708 62.2063 58.0961 61.9652 58.2801 61.776C58.4641 61.5867 58.6986 61.4579 58.9538 61.4057C59.209 61.3535 59.4736 61.3803 59.714 61.4827C59.9545 61.5851 60.16 61.7585 60.3046 61.981C60.4491 62.2035 60.5263 62.4651 60.5263 62.7327C60.5263 63.0916 60.3877 63.4358 60.1409 63.6895C59.8942 63.9433 59.5595 64.0858 59.2105 64.0858ZM59.2105 62.1703C59.0728 62.1821 58.9445 62.2467 58.851 62.3512C58.7575 62.4558 58.7056 62.5926 58.7056 62.7347C58.7056 62.8768 58.7575 63.0136 58.851 63.1182C58.9445 63.2227 59.0728 63.2873 59.2105 63.2991C59.2864 63.3057 59.3629 63.2959 59.435 63.2705C59.507 63.2451 59.5732 63.2046 59.6293 63.1516C59.6854 63.0985 59.7301 63.0341 59.7607 62.9623C59.7914 62.8906 59.8072 62.8131 59.8072 62.7347C59.8072 62.6563 59.7914 62.5788 59.7607 62.5071C59.7301 62.4353 59.6854 62.3709 59.6293 62.3179C59.5732 62.2648 59.507 62.2243 59.435 62.1989C59.3629 62.1735 59.2864 62.1637 59.2105 62.1703Z" fill="#093F68"/>
<path d="M75.2985 74.7845C75.2985 72.8965 77.3295 71.3664 79.8349 71.3664C82.3403 71.3664 84.3713 72.8965 84.3713 74.7845H75.2985Z" fill="white"/>
<path d="M84.3713 75.1778H75.2985C75.197 75.1778 75.0997 75.1364 75.028 75.0626C74.9563 74.9888 74.916 74.8888 74.916 74.7845C74.916 72.6841 77.123 70.9731 79.8349 70.9731C82.5468 70.9731 84.7538 72.6841 84.7538 74.7845C84.7538 74.8888 84.7135 74.9888 84.6418 75.0626C84.5701 75.1364 84.4728 75.1778 84.3713 75.1778ZM75.7154 74.3911H83.9544C83.6867 72.9083 81.9425 71.7597 79.8349 71.7597C77.7273 71.7597 75.9831 72.9083 75.7154 74.3911Z" fill="#093F68"/>
<path d="M79.8349 72.8453C79.7334 72.8453 79.6362 72.8039 79.5644 72.7301C79.4927 72.6564 79.4524 72.5563 79.4524 72.452V70.7253C79.4524 70.6209 79.4927 70.5209 79.5644 70.4471C79.6362 70.3734 79.7334 70.3319 79.8349 70.3319C79.9363 70.3319 80.0336 70.3734 80.1053 70.4471C80.1771 70.5209 80.2174 70.6209 80.2174 70.7253V72.452C80.2174 72.5563 80.1771 72.6564 80.1053 72.7301C80.0336 72.8039 79.9363 72.8453 79.8349 72.8453Z" fill="#093F68"/>
<path d="M32.5387 74.9772H27.4859C26.9077 74.9772 26.3531 74.741 25.9443 74.3205C25.5354 73.9001 25.3057 73.3298 25.3057 72.7352V63.8498H34.719V72.747C34.716 73.3396 34.4849 73.9068 34.0764 74.3247C33.6678 74.7426 33.115 74.9772 32.5387 74.9772Z" fill="#FD985B"/>
<path d="M32.5388 75.3705H27.4898C26.8101 75.3705 26.1582 75.0929 25.6776 74.5987C25.197 74.1044 24.927 73.4341 24.927 72.7352V63.8498C24.927 63.7455 24.9673 63.6455 25.039 63.5717C25.1108 63.4979 25.2081 63.4565 25.3095 63.4565H34.7228C34.8243 63.4565 34.9216 63.4979 34.9933 63.5717C35.065 63.6455 35.1053 63.7455 35.1053 63.8498V72.7352C35.1043 73.4345 34.8335 74.1048 34.3523 74.5989C33.871 75.093 33.2188 75.3705 32.5388 75.3705ZM25.692 64.2431V72.7352C25.693 73.2252 25.8827 73.6948 26.2197 74.0413C26.5566 74.3877 27.0133 74.5828 27.4898 74.5839H32.5388C33.0159 74.5839 33.4736 74.3892 33.8113 74.0427C34.1491 73.6961 34.3393 73.2259 34.3403 72.7352V64.2431H25.692Z" fill="#093F68"/>
<path d="M24.25 72.2239C23.5692 72.2239 22.938 72.1649 22.4561 71.6771C21.9741 71.1894 21.7332 70.3044 21.7332 68.9238C21.7332 67.5432 21.9627 66.6858 22.4561 66.1705C23.0184 65.6041 23.7795 65.612 24.5828 65.6238H25.3172C25.4186 65.6238 25.5159 65.6652 25.5876 65.739C25.6594 65.8127 25.6997 65.9128 25.6997 66.0171V71.803C25.6997 71.9073 25.6594 72.0074 25.5876 72.0811C25.5159 72.1549 25.4186 72.1963 25.3172 72.1963H24.25V72.2239ZM24.25 66.4262C23.7107 66.4262 23.2785 66.4694 23.0031 66.7526C22.6665 67.0909 22.5058 67.8028 22.5058 68.9317C22.5058 70.0605 22.6665 70.7764 23.0031 71.1147C23.3397 71.4529 23.8866 71.4451 24.579 71.4333H24.9615V66.434H24.25V66.4262Z" fill="#093F68"/>
<path d="M91.0881 57.7767H87.2249V74.8985H91.0881V57.7767Z" fill="#70CC40"/>
<path d="M91.088 75.2919H87.2248C87.1233 75.2919 87.026 75.2504 86.9543 75.1767C86.8826 75.1029 86.8423 75.0028 86.8423 74.8985V57.7767C86.8423 57.6724 86.8826 57.5724 86.9543 57.4986C87.026 57.4248 87.1233 57.3834 87.2248 57.3834H91.088C91.1895 57.3834 91.2868 57.4248 91.3585 57.4986C91.4302 57.5724 91.4705 57.6724 91.4705 57.7767V74.8985C91.4705 75.0028 91.4302 75.1029 91.3585 75.1767C91.2868 75.2504 91.1895 75.2919 91.088 75.2919ZM87.6073 74.5052H90.7055V58.1701H87.6073V74.5052Z" fill="#093F68"/>
<path d="M95.4485 60.0227H91.088V74.9772H95.4485V60.0227Z" fill="#F56132"/>
<path d="M95.4485 75.3705H91.088C90.9866 75.3705 90.8893 75.3291 90.8175 75.2553C90.7458 75.1816 90.7055 75.0815 90.7055 74.9772V60.0305C90.7055 59.9262 90.7458 59.8262 90.8175 59.7524C90.8893 59.6786 90.9866 59.6372 91.088 59.6372H95.4485C95.55 59.6372 95.6472 59.6786 95.719 59.7524C95.7907 59.8262 95.831 59.9262 95.831 60.0305V74.9772C95.831 75.0815 95.7907 75.1816 95.719 75.2553C95.6472 75.3291 95.55 75.3705 95.4485 75.3705ZM91.4705 74.5839H95.066V60.4239H91.4705V74.5839Z" fill="#093F68"/>
<path d="M101.286 57.171H95.7546V74.9772H101.286V57.171Z" fill="#FFBC0E"/>
<path d="M101.289 75.3705H95.7546C95.6531 75.3705 95.5558 75.3291 95.4841 75.2553C95.4124 75.1816 95.3721 75.0815 95.3721 74.9772V57.171C95.3721 57.0667 95.4124 56.9666 95.4841 56.8929C95.5558 56.8191 95.6531 56.7777 95.7546 56.7777H101.289C101.391 56.7777 101.488 56.8191 101.56 56.8929C101.632 56.9666 101.672 57.0667 101.672 57.171V74.9772C101.672 75.0815 101.632 75.1816 101.56 75.2553C101.488 75.3291 101.391 75.3705 101.289 75.3705ZM96.1371 74.5839H100.907V57.5643H96.1371V74.5839Z" fill="#093F68"/>
<path d="M106.346 62.7367H101.289V74.8946H106.346V62.7367Z" fill="#725858"/>
<path d="M106.342 75.2919H101.289C101.188 75.2919 101.091 75.2504 101.019 75.1767C100.947 75.1029 100.907 75.0028 100.907 74.8985V62.7367C100.907 62.6324 100.947 62.5323 101.019 62.4585C101.091 62.3848 101.188 62.3433 101.289 62.3433H106.342C106.444 62.3433 106.541 62.3848 106.613 62.4585C106.684 62.5323 106.725 62.6324 106.725 62.7367V74.8985C106.725 75.0028 106.684 75.1029 106.613 75.1767C106.541 75.2504 106.444 75.2919 106.342 75.2919ZM101.672 74.5052H105.96V63.13H101.672V74.5052Z" fill="#093F68"/>
<path d="M106.342 67.1105H101.289C101.188 67.1105 101.091 67.0691 101.019 66.9953C100.947 66.9216 100.907 66.8215 100.907 66.7172C100.907 66.6129 100.947 66.5128 101.019 66.4391C101.091 66.3653 101.188 66.3239 101.289 66.3239H106.342C106.444 66.3239 106.541 66.3653 106.613 66.4391C106.684 66.5128 106.725 66.6129 106.725 66.7172C106.725 66.8215 106.684 66.9216 106.613 66.9953C106.541 67.0691 106.444 67.1105 106.342 67.1105Z" fill="#093F68"/>
<path d="M101.289 61.7533H95.7546C95.6531 61.7533 95.5558 61.7119 95.4841 61.6381C95.4124 61.5644 95.3721 61.4643 95.3721 61.36C95.3721 61.2557 95.4124 61.1556 95.4841 61.0819C95.5558 61.0081 95.6531 60.9667 95.7546 60.9667H101.289C101.391 60.9667 101.488 61.0081 101.56 61.0819C101.632 61.1556 101.672 61.2557 101.672 61.36C101.672 61.4643 101.632 61.5644 101.56 61.6381C101.488 61.7119 101.391 61.7533 101.289 61.7533Z" fill="#093F68"/>
<path d="M101.289 71.1186H95.7546C95.6531 71.1186 95.5558 71.0772 95.4841 71.0034C95.4124 70.9296 95.3721 70.8296 95.3721 70.7253C95.3721 70.6209 95.4124 70.5209 95.4841 70.4471C95.5558 70.3734 95.6531 70.3319 95.7546 70.3319H101.289C101.391 70.3319 101.488 70.3734 101.56 70.4471C101.632 70.5209 101.672 70.6209 101.672 70.7253C101.672 70.8296 101.632 70.9296 101.56 71.0034C101.488 71.0772 101.391 71.1186 101.289 71.1186Z" fill="#093F68"/>
<path d="M93.1536 64.3375C93.5824 64.3375 93.93 63.98 93.93 63.5391C93.93 63.0981 93.5824 62.7406 93.1536 62.7406C92.7247 62.7406 92.3771 63.0981 92.3771 63.5391C92.3771 63.98 92.7247 64.3375 93.1536 64.3375Z" fill="#093F68"/>
<path d="M93.1535 64.7309C92.9266 64.7309 92.7047 64.6617 92.516 64.532C92.3273 64.4024 92.1802 64.2181 92.0934 64.0024C92.0065 63.7868 91.9838 63.5496 92.0281 63.3207C92.0724 63.0918 92.1817 62.8815 92.3421 62.7165C92.5026 62.5515 92.7071 62.4391 92.9297 62.3936C93.1523 62.348 93.383 62.3714 93.5927 62.4607C93.8023 62.55 93.9816 62.7013 94.1076 62.8953C94.2337 63.0894 94.301 63.3175 94.301 63.5509C94.301 63.8638 94.1801 64.164 93.9649 64.3853C93.7497 64.6066 93.4579 64.7309 93.1535 64.7309ZM93.1535 63.13C93.0779 63.13 93.0039 63.1531 92.941 63.1963C92.8781 63.2395 92.8291 63.301 92.8002 63.3728C92.7712 63.4447 92.7636 63.5238 92.7784 63.6001C92.7932 63.6764 92.8296 63.7465 92.8831 63.8015C92.9366 63.8565 93.0047 63.8939 93.0789 63.9091C93.1531 63.9243 93.23 63.9165 93.2999 63.8867C93.3698 63.857 93.4295 63.8066 93.4716 63.7419C93.5136 63.6772 93.536 63.6011 93.536 63.5233C93.536 63.419 93.4957 63.319 93.424 63.2452C93.3523 63.1715 93.255 63.13 93.1535 63.13Z" fill="#093F68"/>
<path d="M91.088 63.13H87.2248C87.1233 63.13 87.026 63.0886 86.9543 63.0148C86.8826 62.941 86.8423 62.841 86.8423 62.7367C86.8423 62.6323 86.8826 62.5323 86.9543 62.4585C87.026 62.3848 87.1233 62.3433 87.2248 62.3433H91.088C91.1895 62.3433 91.2868 62.3848 91.3585 62.4585C91.4302 62.5323 91.4705 62.6323 91.4705 62.7367C91.4705 62.841 91.4302 62.941 91.3585 63.0148C91.2868 63.0886 91.1895 63.13 91.088 63.13Z" fill="#093F68"/>
<path d="M91.088 70.3162H87.2248C87.1233 70.3162 87.026 70.2748 86.9543 70.201C86.8826 70.1272 86.8423 70.0272 86.8423 69.9229C86.8423 69.8185 86.8826 69.7185 86.9543 69.6447C87.026 69.571 87.1233 69.5295 87.2248 69.5295H91.088C91.1895 69.5295 91.2868 69.571 91.3585 69.6447C91.4302 69.7185 91.4705 69.8185 91.4705 69.9229C91.4705 70.0272 91.4302 70.1272 91.3585 70.201C91.2868 70.2748 91.1895 70.3162 91.088 70.3162Z" fill="#093F68"/>
<path d="M90.3995 71.7597H87.2248C87.1233 71.7597 87.026 71.7183 86.9543 71.6445C86.8826 71.5708 86.8423 71.4707 86.8423 71.3664C86.8423 71.2621 86.8826 71.162 86.9543 71.0883C87.026 71.0145 87.1233 70.9731 87.2248 70.9731H90.3995C90.501 70.9731 90.5983 71.0145 90.67 71.0883C90.7417 71.162 90.782 71.2621 90.782 71.3664C90.782 71.4707 90.7417 71.5708 90.67 71.6445C90.5983 71.7183 90.501 71.7597 90.3995 71.7597Z" fill="#093F68"/>
<path d="M93.165 39.0069H85.6795V46.7044H93.165V39.0069Z" fill="white"/>
<path d="M93.165 47.0977H85.6795C85.5781 47.0977 85.4808 47.0563 85.409 46.9825C85.3373 46.9088 85.297 46.8087 85.297 46.7044V39.0069C85.297 38.9025 85.3373 38.8025 85.409 38.7287C85.4808 38.655 85.5781 38.6135 85.6795 38.6135H93.165C93.2665 38.6135 93.3637 38.655 93.4355 38.7287C93.5072 38.8025 93.5475 38.9025 93.5475 39.0069V46.7044C93.5475 46.8087 93.5072 46.9088 93.4355 46.9825C93.3637 47.0563 93.2665 47.0977 93.165 47.0977ZM86.062 46.3111H92.7825V39.4002H86.062V46.3111Z" fill="#DFEAEF"/>
<path d="M89.4242 40.7887C89.3227 40.7887 89.2254 40.7472 89.1537 40.6735C89.082 40.5997 89.0417 40.4997 89.0417 40.3953V38.232C89.0417 38.1277 89.082 38.0276 89.1537 37.9539C89.2254 37.8801 89.3227 37.8387 89.4242 37.8387C89.5256 37.8387 89.6229 37.8801 89.6946 37.9539C89.7664 38.0276 89.8067 38.1277 89.8067 38.232V40.3953C89.8067 40.4997 89.7664 40.5997 89.6946 40.6735C89.6229 40.7472 89.5256 40.7887 89.4242 40.7887Z" fill="#DFEAEF"/>
<path d="M104.56 44.5607H97.7589V51.5542H104.56V44.5607Z" fill="white"/>
<path d="M104.575 51.9436H97.7588C97.6574 51.9436 97.5601 51.9022 97.4884 51.8284C97.4166 51.7546 97.3763 51.6546 97.3763 51.5503V44.5607C97.3763 44.4564 97.4166 44.3564 97.4884 44.2826C97.5601 44.2088 97.6574 44.1674 97.7588 44.1674H104.575C104.676 44.1674 104.774 44.2088 104.845 44.2826C104.917 44.3564 104.957 44.4564 104.957 44.5607V51.5503C104.957 51.6546 104.917 51.7546 104.845 51.8284C104.774 51.9022 104.676 51.9436 104.575 51.9436ZM98.1605 51.1569H104.192V44.9541H98.1413L98.1605 51.1569Z" fill="#DFEAEF"/>
<path d="M101.155 46.2167C101.054 46.2167 100.957 46.1752 100.885 46.1015C100.813 46.0277 100.773 45.9276 100.773 45.8233V43.8567C100.773 43.7523 100.813 43.6523 100.885 43.5785C100.957 43.5048 101.054 43.4633 101.155 43.4633C101.257 43.4633 101.354 43.5048 101.426 43.5785C101.498 43.6523 101.538 43.7523 101.538 43.8567V45.8233C101.538 45.9276 101.498 46.0277 101.426 46.1015C101.354 46.1752 101.257 46.2167 101.155 46.2167Z" fill="#DFEAEF"/>
<path d="M32.0798 40.4189H18.7191V54.1581H32.0798V40.4189Z" fill="white"/>
<path d="M32.0798 54.5553H18.719C18.6176 54.5553 18.5203 54.5139 18.4486 54.4401C18.3768 54.3664 18.3365 54.2663 18.3365 54.162V40.4189C18.3365 40.3146 18.3768 40.2146 18.4486 40.1408C18.5203 40.067 18.6176 40.0256 18.719 40.0256H32.0798C32.1812 40.0256 32.2785 40.067 32.3502 40.1408C32.422 40.2146 32.4623 40.3146 32.4623 40.4189V54.162C32.4623 54.2663 32.422 54.3664 32.3502 54.4401C32.2785 54.5139 32.1812 54.5553 32.0798 54.5553ZM19.1015 53.7687H31.6973V40.8123H19.1015V53.7687Z" fill="#DFEAEF"/>
<path d="M32.0798 40.4189H18.7191V43.5656H32.0798V40.4189Z" fill="white"/>
<path d="M32.0798 43.9589H18.719C18.6176 43.9589 18.5203 43.9175 18.4486 43.8437C18.3768 43.77 18.3365 43.6699 18.3365 43.5656V40.4189C18.3365 40.3146 18.3768 40.2146 18.4486 40.1408C18.5203 40.067 18.6176 40.0256 18.719 40.0256H32.0798C32.1812 40.0256 32.2785 40.067 32.3502 40.1408C32.422 40.2146 32.4623 40.3146 32.4623 40.4189V43.5656C32.4623 43.6699 32.422 43.77 32.3502 43.8437C32.2785 43.9175 32.1812 43.9589 32.0798 43.9589ZM19.1015 43.1723H31.6973V40.8123H19.1015V43.1723Z" fill="#DFEAEF"/>
<path d="M21.955 50.15L23.726 48.38L23.8866 48.2109C23.9429 48.1512 23.9941 48.0867 24.0396 48.0181C24.0852 47.9532 24.1237 47.8833 24.1544 47.8097C24.1816 47.7368 24.1958 47.6596 24.1965 47.5815C24.1992 47.4906 24.1808 47.4002 24.1429 47.318C24.1067 47.2449 24.0574 47.1796 23.9976 47.1253C23.9353 47.0718 23.864 47.0305 23.7872 47.0033C23.705 46.9731 23.6182 46.9585 23.5309 46.9601C23.3546 46.9517 23.1819 47.0137 23.049 47.1331C22.9203 47.2553 22.8399 47.4219 22.8233 47.6012L22.0047 47.5343C22.0181 47.3331 22.0701 47.1366 22.1577 46.9561C22.2358 46.7937 22.3482 46.6512 22.4867 46.5392C22.6255 46.425 22.7837 46.3383 22.9533 46.2835C23.1406 46.2254 23.3353 46.1962 23.5309 46.197C23.7279 46.1949 23.924 46.2241 24.1123 46.2835C24.2809 46.3351 24.4391 46.4177 24.579 46.5274C24.7162 46.6387 24.8263 46.7815 24.9003 46.9443C24.987 47.1637 25.0245 47.4003 25.0099 47.6367C24.9954 47.873 24.9291 48.1029 24.8161 48.3092C24.6755 48.5385 24.5043 48.7464 24.3074 48.9267L22.8883 50.2837H25.015V51.0035H21.955V50.15Z" fill="#DFEAEF"/>
<path d="M25.78 50.15L27.5662 48.3761L27.7269 48.2069C27.7831 48.1473 27.8343 48.0828 27.8799 48.0142C27.9254 47.9492 27.9639 47.8793 27.9946 47.8057C28.0285 47.7285 28.0461 47.6447 28.0461 47.5599C28.0461 47.4751 28.0285 47.3913 27.9946 47.3141C27.9597 47.2402 27.9102 47.1745 27.8493 47.1213C27.787 47.0678 27.7157 47.0265 27.6389 46.9994C27.5568 46.9688 27.4699 46.9542 27.3826 46.9561C27.2063 46.9478 27.0336 47.0098 26.9007 47.1292C26.7734 47.2524 26.6934 47.4185 26.675 47.5973L25.8565 47.5304C25.8698 47.3292 25.9218 47.1326 26.0095 46.9522C26.0888 46.7906 26.201 46.6484 26.3384 46.5353C26.4777 46.4219 26.6358 46.3353 26.8051 46.2796C26.9924 46.2217 27.187 46.1926 27.3826 46.1931C27.5796 46.191 27.7757 46.2201 27.964 46.2796C28.1342 46.3303 28.2937 46.413 28.4345 46.5235C28.5706 46.635 28.6793 46.7778 28.752 46.9404C28.8318 47.1274 28.871 47.3301 28.8667 47.5343C28.8769 47.8104 28.8091 48.0836 28.6717 48.321C28.5285 48.5495 28.3561 48.7572 28.1591 48.9385L26.74 50.2955H28.84V51.0153H25.78V50.15Z" fill="#DFEAEF"/>
<path d="M21.4463 41.6265C21.3448 41.6265 21.2475 41.585 21.1758 41.5113C21.1041 41.4375 21.0638 41.3375 21.0638 41.2331V39.2665C21.0638 39.1622 21.1041 39.0621 21.1758 38.9884C21.2475 38.9146 21.3448 38.8732 21.4463 38.8732C21.5477 38.8732 21.645 38.9146 21.7167 38.9884C21.7885 39.0621 21.8288 39.1622 21.8288 39.2665V41.2331C21.8288 41.3375 21.7885 41.4375 21.7167 41.5113C21.645 41.585 21.5477 41.6265 21.4463 41.6265Z" fill="#DFEAEF"/>
<path d="M24.0817 41.6265C23.9802 41.6265 23.8829 41.585 23.8112 41.5113C23.7395 41.4375 23.6992 41.3375 23.6992 41.2331V39.2665C23.6992 39.1622 23.7395 39.0621 23.8112 38.9884C23.8829 38.9146 23.9802 38.8732 24.0817 38.8732C24.1831 38.8732 24.2804 38.9146 24.3521 38.9884C24.4239 39.0621 24.4642 39.1622 24.4642 39.2665V41.2331C24.4642 41.3375 24.4239 41.4375 24.3521 41.5113C24.2804 41.585 24.1831 41.6265 24.0817 41.6265Z" fill="#DFEAEF"/>
<path d="M26.7172 41.6265C26.6157 41.6265 26.5184 41.585 26.4467 41.5113C26.375 41.4375 26.3347 41.3375 26.3347 41.2331V39.2665C26.3347 39.1622 26.375 39.0621 26.4467 38.9884C26.5184 38.9146 26.6157 38.8732 26.7172 38.8732C26.8186 38.8732 26.9159 38.9146 26.9876 38.9884C27.0594 39.0621 27.0997 39.1622 27.0997 39.2665V41.2331C27.0997 41.3375 27.0594 41.4375 26.9876 41.5113C26.9159 41.585 26.8186 41.6265 26.7172 41.6265Z" fill="#DFEAEF"/>
<path d="M29.3487 41.6265C29.2473 41.6265 29.15 41.585 29.0783 41.5113C29.0065 41.4375 28.9662 41.3375 28.9662 41.2331V39.2665C28.9662 39.1622 29.0065 39.0621 29.0783 38.9884C29.15 38.9146 29.2473 38.8732 29.3487 38.8732C29.4502 38.8732 29.5475 38.9146 29.6192 38.9884C29.6909 39.0621 29.7312 39.1622 29.7312 39.2665V41.2331C29.7312 41.3375 29.6909 41.4375 29.6192 41.5113C29.5475 41.585 29.4502 41.6265 29.3487 41.6265Z" fill="#DFEAEF"/>
<path d="M69.3964 72.3733H49.0283C48.4727 72.3733 48.0223 72.8365 48.0223 73.4078V73.8641C48.0223 74.4354 48.4727 74.8985 49.0283 74.8985H69.3964C69.952 74.8985 70.4024 74.4354 70.4024 73.8641V73.4078C70.4024 72.8365 69.952 72.3733 69.3964 72.3733Z" fill="#FD985B"/>
<path d="M69.385 75.2919H49.0284C48.6604 75.2908 48.3079 75.1401 48.0477 74.8725C47.7875 74.605 47.6409 74.2424 47.6399 73.8641V73.4078C47.6409 73.0294 47.7875 72.6669 48.0477 72.3993C48.3079 72.1318 48.6604 71.981 49.0284 71.98H69.385C69.753 71.981 70.1055 72.1318 70.3657 72.3993C70.6259 72.6669 70.7725 73.0294 70.7735 73.4078V73.8641C70.7725 74.2424 70.6259 74.605 70.3657 74.8725C70.1055 75.1401 69.753 75.2908 69.385 75.2919ZM49.0284 72.7667C48.863 72.7667 48.7044 72.8342 48.5875 72.9544C48.4706 73.0747 48.4049 73.2378 48.4049 73.4078V73.8641C48.4049 74.0341 48.4706 74.1972 48.5875 74.3174C48.7044 74.4376 48.863 74.5052 49.0284 74.5052H69.385C69.5501 74.5042 69.7081 74.4363 69.8248 74.3163C69.9415 74.1963 70.0075 74.0338 70.0085 73.8641V73.4078C70.0075 73.2381 69.9415 73.0756 69.8248 72.9556C69.7081 72.8356 69.5501 72.7677 69.385 72.7667H49.0284Z" fill="#093F68"/>
</svg>
