<svg width="135" height="83" viewBox="0 0 135 83" fill="none" xmlns="http://www.w3.org/2000/svg">
<path d="M110.982 8.87579H23.2622C21.3002 8.87579 19.7097 10.4663 19.7097 12.4283V64.1282C19.7097 66.0902 21.3002 67.6807 23.2622 67.6807H110.982C112.944 67.6807 114.534 66.0902 114.534 64.1282V12.4283C114.534 10.4663 112.944 8.87579 110.982 8.87579Z" fill="#093F68"/>
<path d="M110.987 68.1658H23.2769C22.2051 68.1645 21.1777 67.7382 20.4198 66.9804C19.662 66.2225 19.2357 65.195 19.2344 64.1233V12.4283C19.2357 11.3566 19.662 10.3291 20.4198 9.57126C21.1777 8.81342 22.2051 8.3871 23.2769 8.3858H110.987C112.059 8.3871 113.086 8.81342 113.844 9.57126C114.602 10.3291 115.028 11.3566 115.029 12.4283V64.1233C115.028 65.195 114.602 66.2225 113.844 66.9804C113.086 67.7382 112.059 68.1645 110.987 68.1658ZM23.2769 9.3658C22.465 9.3671 21.6868 9.69017 21.1128 10.2642C20.5387 10.8383 20.2157 11.6165 20.2144 12.4283V64.1233C20.2157 64.9351 20.5387 65.7133 21.1128 66.2874C21.6868 66.8614 22.465 67.1845 23.2769 67.1858H110.987C111.799 67.1845 112.577 66.8614 113.151 66.2874C113.725 65.7133 114.048 64.9351 114.049 64.1233V12.4283C114.048 11.6165 113.725 10.8383 113.151 10.2642C112.577 9.69017 111.799 9.3671 110.987 9.3658H23.2769Z" fill="#093F68"/>
<path d="M15.04 65.8726H119.214V72.86C119.214 73.7697 118.853 74.6421 118.209 75.2854C117.566 75.9286 116.694 76.29 115.784 76.29H18.47C17.5603 76.29 16.6879 75.9286 16.0446 75.2854C15.4014 74.6421 15.04 73.7697 15.04 72.86V65.8726Z" fill="#FD985B"/>
<path d="M115.794 76.78H18.47C17.4303 76.78 16.4333 76.367 15.6981 75.6319C14.963 74.8967 14.55 73.8996 14.55 72.86V65.8726C14.55 65.7426 14.6016 65.618 14.6935 65.5261C14.7854 65.4342 14.91 65.3826 15.04 65.3826H119.214C119.344 65.3826 119.469 65.4342 119.56 65.5261C119.652 65.618 119.704 65.7426 119.704 65.8726V72.86C119.704 73.8979 119.292 74.8935 118.559 75.6284C117.826 76.3633 116.832 76.7774 115.794 76.78ZM15.53 66.3626V72.86C15.53 73.6397 15.8397 74.3875 16.3911 74.9389C16.9425 75.4902 17.6903 75.8 18.47 75.8H115.794C116.574 75.8 117.321 75.4902 117.873 74.9389C118.424 74.3875 118.734 73.6397 118.734 72.86V66.3626H15.53Z" fill="#093F68"/>
<path d="M109.948 12.7125H24.301V63.8097H109.948V12.7125Z" fill="white"/>
<path d="M109.948 64.2997H24.301C24.171 64.2997 24.0464 64.2481 23.9545 64.1562C23.8626 64.0643 23.811 63.9397 23.811 63.8097V12.7125C23.811 12.5825 23.8626 12.4579 23.9545 12.366C24.0464 12.2741 24.171 12.2225 24.301 12.2225H109.948C110.078 12.2225 110.203 12.2741 110.295 12.366C110.386 12.4579 110.438 12.5825 110.438 12.7125V63.8097C110.438 63.9397 110.386 64.0643 110.295 64.1562C110.203 64.2481 110.078 64.2997 109.948 64.2997ZM24.791 63.3197H109.458V13.2025H24.791V63.3197Z" fill="#093F68"/>
<path d="M109.948 46.2285V63.8097H103.828C103.559 63.3197 103.294 62.8689 103.024 62.4524C101.686 60.4198 100.816 58.1152 100.476 55.7051C100.422 55.5097 100.414 55.3041 100.453 55.105C100.492 54.9059 100.577 54.7187 100.702 54.5585C101.192 54.1028 101.981 54.5928 102.422 55.1024C103.498 56.3419 104.307 57.7897 104.798 59.3556C104.333 57.768 104.049 56.151 103.622 54.5585C103.333 53.4805 102.897 52.1575 103.47 51.0746C104.617 48.8941 106.41 54.6173 106.469 55.4846C106.378 53.7569 106.467 52.0245 106.734 50.3151C106.94 48.9627 107.312 47.5368 108.341 46.6303C108.658 46.3258 109.077 46.1509 109.517 46.1403C109.665 46.1423 109.811 46.1722 109.948 46.2285Z" fill="#70CC40"/>
<path d="M109.948 64.2997H103.828C103.741 64.2995 103.656 64.2763 103.581 64.2324C103.506 64.1885 103.444 64.1255 103.402 64.0498C103.152 63.6039 102.882 63.1335 102.613 62.717C101.229 60.6269 100.333 58.2522 99.9913 55.7688C99.9242 55.4963 99.9234 55.2117 99.989 54.9389C100.055 54.666 100.185 54.4129 100.369 54.2008C100.485 54.0909 100.623 54.0067 100.774 53.9535C100.925 53.9004 101.086 53.8794 101.246 53.8921C101.855 53.9861 102.407 54.3041 102.794 54.7839C102.985 55.0044 103.171 55.2347 103.348 55.4699C103.284 55.2053 103.215 54.9456 103.147 54.6859L103.078 54.4311C102.784 53.3531 102.417 52.0154 103.034 50.8443C103.446 50.0652 103.98 50.0554 104.259 50.1142C104.935 50.2661 105.543 51.2412 106.013 52.329C106.062 51.6283 106.141 50.9276 106.249 50.2416C106.45 48.9431 106.827 47.3016 108.018 46.2677C108.423 45.8723 108.965 45.6478 109.532 45.6405C109.741 45.6475 109.947 45.694 110.139 45.7777C110.228 45.8152 110.303 45.8779 110.356 45.9581C110.41 46.0383 110.438 46.1323 110.438 46.2285V63.8097C110.438 63.9396 110.386 64.0643 110.295 64.1562C110.203 64.2481 110.078 64.2997 109.948 64.2997ZM104.112 63.3197H109.458V46.6205C109.159 46.6579 108.88 46.7921 108.664 47.0027C107.714 47.8406 107.39 49.2567 107.219 50.3935C106.957 52.0705 106.87 53.7701 106.959 55.465C106.966 55.5949 106.92 55.7222 106.833 55.8187C106.746 55.9151 106.624 55.973 106.494 55.9795C106.364 55.986 106.236 55.9406 106.14 55.8533C106.043 55.766 105.986 55.6439 105.979 55.514C105.935 54.6614 104.681 51.2216 104.053 51.0746C103.995 51.1442 103.944 51.2197 103.901 51.3C103.465 52.133 103.764 53.2159 104.024 54.1714L104.093 54.4311C104.284 55.1367 104.445 55.857 104.583 56.5479C104.783 57.4299 104.989 58.3413 105.249 59.2184C105.278 59.3397 105.259 59.4674 105.197 59.5755C105.135 59.6836 105.034 59.7639 104.915 59.8002C104.795 59.8364 104.667 59.8258 104.555 59.7705C104.443 59.7152 104.357 59.6194 104.313 59.5026C103.837 58.0035 103.062 56.6166 102.035 55.4258C101.817 55.1471 101.511 54.9502 101.167 54.8672C101.139 54.8635 101.111 54.8664 101.085 54.8758C101.058 54.8852 101.035 54.9007 101.015 54.9211C100.878 55.0436 100.908 55.4111 100.942 55.6414C101.261 57.9786 102.098 60.2151 103.392 62.1878C103.671 62.57 103.897 62.9375 104.112 63.3197Z" fill="#093F68"/>
<path d="M74.5701 69.4153H59.679L58.7823 65.1376H75.4668L74.5701 69.4153Z" fill="#093F68"/>
<path d="M74.5652 69.92H59.679C59.5644 69.9223 59.4525 69.8843 59.363 69.8127C59.2735 69.7411 59.2119 69.6403 59.189 69.528L58.2874 65.2454C58.2727 65.1734 58.2743 65.099 58.2923 65.0277C58.3102 64.9564 58.344 64.8901 58.391 64.8336C58.4381 64.7771 58.4973 64.732 58.5641 64.7015C58.631 64.671 58.7039 64.6559 58.7774 64.6574H75.4374C75.5109 64.6559 75.5838 64.671 75.6506 64.7015C75.7175 64.732 75.7767 64.7771 75.8237 64.8336C75.8708 64.8901 75.9045 64.9564 75.9225 65.0277C75.9404 65.099 75.9421 65.1734 75.9274 65.2454L75.0258 69.528C75.0039 69.6355 74.9467 69.7325 74.8632 69.8035C74.7797 69.8746 74.6748 69.9156 74.5652 69.92ZM60.0808 68.94H74.1683L74.8641 65.6374H59.385L60.0808 68.94Z" fill="#093F68"/>
<path d="M69.2781 63.403V54.4066C69.2781 52.53 68.5326 50.7303 67.2057 49.4034C65.8788 48.0765 64.0791 47.331 62.2025 47.331H51.0452C49.1695 47.3323 47.371 48.0783 46.0452 49.4051C44.7193 50.7319 43.9745 52.5309 43.9745 54.4066V63.403H69.2781Z" fill="#D1D1D1"/>
<path d="M69.2781 63.893H43.9745C43.8445 63.893 43.7199 63.8414 43.628 63.7495C43.5361 63.6576 43.4845 63.5329 43.4845 63.403V54.4066C43.4858 52.4013 44.2826 50.4785 45.7001 49.0601C47.1176 47.6417 49.0399 46.8436 51.0452 46.841H62.2025C64.2082 46.8436 66.1311 47.6415 67.5493 49.0598C68.9676 50.478 69.7655 52.4009 69.7681 54.4066V63.403C69.7681 63.5329 69.7165 63.6576 69.6246 63.7495C69.5327 63.8414 69.4081 63.893 69.2781 63.893ZM44.4645 62.913H68.7881V54.4066C68.7855 52.6608 68.0908 50.9872 66.8564 49.7527C65.6219 48.5183 63.9483 47.8236 62.2025 47.821H51.0452C49.2998 47.8236 47.6268 48.5184 46.3931 49.753C45.1594 50.9877 44.4658 52.6612 44.4645 54.4066V62.913Z" fill="#093F68"/>
<path d="M61.2372 47.3359L56.7096 58.8901L52.0791 47.3359H61.2372Z" fill="#868686"/>
<path d="M56.69 59.3801C56.5919 59.3802 56.496 59.3508 56.4147 59.2958C56.3335 59.2407 56.2706 59.1626 56.2343 59.0714L51.6038 47.5172C51.5733 47.4423 51.5619 47.3611 51.5704 47.2807C51.579 47.2004 51.6073 47.1234 51.6528 47.0566C51.6977 46.9901 51.7583 46.9357 51.8293 46.8981C51.9002 46.8605 51.9792 46.8409 52.0595 46.841H61.2176C61.2976 46.8409 61.3765 46.8605 61.4473 46.8979C61.518 46.9353 61.5785 46.9895 61.6235 47.0558C61.6684 47.122 61.6965 47.1983 61.7052 47.2778C61.7139 47.3574 61.7029 47.4379 61.6733 47.5123L57.18 59.0665C57.1445 59.1586 57.0819 59.2378 57.0006 59.2937C56.9193 59.3497 56.823 59.3798 56.7243 59.3801H56.69ZM52.77 47.821L56.69 57.5573L60.5022 47.821H52.77Z" fill="#093F68"/>
<path d="M55.1122 45.9884H58.65V48.0268C58.65 48.4257 58.4915 48.8084 58.2094 49.0905C57.9273 49.3726 57.5447 49.5311 57.1457 49.5311H56.6116C56.2126 49.5311 55.83 49.3726 55.5479 49.0905C55.2658 48.8084 55.1073 48.4257 55.1073 48.0268V45.9884H55.1122Z" fill="#FFC9B0"/>
<path d="M57.1506 50.0162H56.6165C56.0884 50.0162 55.5819 49.8068 55.208 49.4338C54.8342 49.0609 54.6235 48.5549 54.6222 48.0268V45.9884C54.6222 45.8585 54.6738 45.7338 54.7657 45.6419C54.8576 45.55 54.9822 45.4984 55.1122 45.4984H58.65C58.7799 45.4984 58.9046 45.55 58.9965 45.6419C59.0884 45.7338 59.14 45.8585 59.14 45.9884V48.0268C59.1387 48.554 58.9287 49.0593 58.5559 49.4321C58.1831 49.8049 57.6778 50.0149 57.1506 50.0162ZM55.6022 46.4784V48.0268C55.6035 48.295 55.7109 48.5517 55.901 48.7409C56.0911 48.93 56.3483 49.0362 56.6165 49.0362H57.1506C57.4188 49.0362 57.676 48.93 57.8661 48.7409C58.0562 48.5517 58.1636 48.295 58.1649 48.0268V46.4784H55.6022Z" fill="#093F68"/>
<path d="M44.636 36.2521C44.452 36.1052 44.3005 35.9219 44.1909 35.7136C44.0812 35.5053 44.0159 35.2766 43.999 35.0418C43.7671 32.8335 43.6462 30.6171 43.6364 28.3925C43.6364 26.1532 43.7442 23.8404 44.7438 21.8363C45.861 19.597 48.0758 17.0294 50.7953 18.6464C50.9172 18.7438 51.0708 18.7926 51.2265 18.7836C51.3542 18.7364 51.4616 18.6464 51.5303 18.5288C55.8031 12.8595 64.3242 15.0988 68.1462 19.94C69.9543 22.2283 70.8706 25.5309 71.0568 28.4121C71.1156 29.3431 69.7632 36.5167 69.4545 36.4628L67.2593 36.0757C66.3381 35.9189 65.1866 36.1443 64.2556 36.1737L57.3956 36.3844C54.7839 36.4677 52.1967 36.8744 49.5801 36.8744C48.213 36.8793 45.7924 37.1733 44.636 36.2521Z" fill="#725858"/>
<path d="M47.6446 37.4183C46.4294 37.4183 45.1603 37.2958 44.3322 36.6343C44.0963 36.4474 43.9014 36.2138 43.7598 35.9483C43.6182 35.6827 43.5328 35.3908 43.509 35.0908C43.2787 32.876 43.1562 30.622 43.1464 28.3974C43.1366 26.1728 43.264 23.6983 44.3028 21.6158C44.7928 20.6652 46.106 18.3818 48.1199 17.7889C48.6127 17.6482 49.1299 17.6143 49.637 17.6895C50.144 17.7647 50.6291 17.9473 51.0599 18.225L51.1236 18.2642V18.2348C51.9526 17.1161 53.0361 16.2109 54.2844 15.594C55.5326 14.9771 56.9098 14.6663 58.3021 14.6872H58.4246C60.3661 14.7263 62.2757 15.1895 64.0193 16.0444C65.763 16.8993 67.2986 18.1252 68.5186 19.6362C70.214 21.7873 71.3116 24.9723 71.5272 28.3827C71.5762 29.0932 70.4051 36.2668 69.7926 36.8156C69.7332 36.8683 69.6627 36.907 69.5864 36.9291C69.5102 36.9511 69.4299 36.9559 69.3516 36.943L67.1613 36.5608C66.5256 36.4904 65.8835 36.5003 65.2503 36.5902C64.9024 36.6196 64.5692 36.6539 64.2703 36.6637L57.4103 36.8744C56.2686 36.9136 55.1073 37.0165 53.9803 37.1194C52.5642 37.2419 51.104 37.3742 49.6438 37.3742H49.5556C49.3204 37.3742 49.0656 37.3742 48.7618 37.3742C48.458 37.3742 48.0268 37.4183 47.6446 37.4183ZM49.1146 18.6268C48.8789 18.6274 48.6445 18.6621 48.4188 18.7297C46.7773 19.2197 45.6258 21.214 45.2044 22.0568C44.3126 23.8453 44.1362 25.8837 44.1509 28.3925C44.1509 30.5877 44.2832 32.8025 44.5086 34.9928C44.5192 35.162 44.5653 35.327 44.6438 35.4773C44.7223 35.6275 44.8315 35.7596 44.9643 35.865C45.7679 36.5118 47.4927 36.453 48.7471 36.4138C49.0607 36.4138 49.3449 36.4138 49.6046 36.4138C51.0501 36.4138 52.5005 36.2864 53.9117 36.159C55.0534 36.0561 56.2294 35.9532 57.4005 35.914L64.2605 35.7033C64.5545 35.7033 64.8681 35.6641 65.1915 35.6347C65.9119 35.5393 66.6417 35.5393 67.3622 35.6347C67.6464 35.6837 68.6068 35.8405 69.2046 35.9532C69.6211 34.6449 70.6354 29.2598 70.5864 28.4807C70.3855 25.3104 69.3369 22.2479 67.7836 20.2781C66.6417 18.8706 65.2046 17.7311 63.5738 16.9403C61.943 16.1494 60.1584 15.7265 58.3462 15.7015C57.1047 15.6846 55.8768 15.9616 54.7628 16.5101C53.6489 17.0585 52.6806 17.8628 51.937 18.8571C51.8045 19.0686 51.5986 19.2239 51.3588 19.2932C51.223 19.3155 51.0842 19.3106 50.9504 19.2786C50.8167 19.2466 50.6906 19.1883 50.5797 19.107C50.1373 18.8118 49.6215 18.6456 49.0901 18.6268H49.1146ZM69.4937 35.9728H69.5623H69.4937Z" fill="#093F68"/>
<path d="M46.7675 39.7556C48.6673 39.7556 50.2073 38.4283 50.2073 36.7911C50.2073 35.1539 48.6673 33.8266 46.7675 33.8266C44.8678 33.8266 43.3277 35.1539 43.3277 36.7911C43.3277 38.4283 44.8678 39.7556 46.7675 39.7556Z" fill="#FFC9B0"/>
<path d="M46.7675 40.2456C44.5968 40.2456 42.8475 38.6972 42.8475 36.7911C42.8475 34.885 44.6066 33.3611 46.7675 33.3611C48.9284 33.3611 50.6875 34.9095 50.6875 36.7911C50.6875 38.6727 48.9333 40.2456 46.7675 40.2456ZM46.7675 34.3166C45.1407 34.3166 43.8275 35.4289 43.8275 36.7666C43.8275 38.1043 45.1505 39.2411 46.7675 39.2411C48.3845 39.2411 49.7075 38.1337 49.7075 36.7666C49.7075 35.3995 48.3894 34.3166 46.7675 34.3166Z" fill="#093F68"/>
<path d="M66.8183 39.7556C68.718 39.7556 70.2581 38.4283 70.2581 36.7911C70.2581 35.1539 68.718 33.8266 66.8183 33.8266C64.9185 33.8266 63.3785 35.1539 63.3785 36.7911C63.3785 38.4283 64.9185 39.7556 66.8183 39.7556Z" fill="#FFC9B0"/>
<path d="M66.8183 40.2456C64.6525 40.2456 62.8983 38.6972 62.8983 36.7911C62.8983 34.885 64.6623 33.3611 66.8183 33.3611C68.9743 33.3611 70.7383 34.9095 70.7383 36.7911C70.7383 38.6727 68.9841 40.2456 66.8183 40.2456ZM66.8183 34.3166C65.1915 34.3166 63.8783 35.4289 63.8783 36.7666C63.8783 38.1043 65.2013 39.2411 66.8183 39.2411C68.4353 39.2411 69.7583 38.1337 69.7583 36.7666C69.7583 35.3995 68.45 34.3166 66.8183 34.3166Z" fill="#093F68"/>
<path d="M56.8811 46.4539C55.5185 46.4539 54.1692 46.1854 52.9103 45.6638C51.6514 45.1422 50.5077 44.3776 49.5443 43.4139C48.581 42.4501 47.817 41.306 47.296 40.0469C46.775 38.7878 46.5072 37.4383 46.5078 36.0757V28.5444C47.1154 29.5244 49.1293 29.1471 52.0791 24.0805C63.1335 29.6812 67.2691 26.4717 67.2691 26.4717V36.0757C67.2691 37.4394 67.0004 38.7897 66.4782 40.0495C65.956 41.3093 65.1907 42.4538 64.226 43.4176C63.2612 44.3815 62.116 45.1457 60.8557 45.6667C59.5954 46.1877 58.2448 46.4552 56.8811 46.4539Z" fill="#FFC9B0"/>
<path d="M56.8811 46.9439C54.0011 46.94 51.2403 45.7942 49.2039 43.7578C47.1674 41.7214 46.0217 38.9605 46.0178 36.0806V28.5444C46.0167 28.4366 46.0512 28.3315 46.116 28.2453C46.1807 28.1591 46.272 28.0967 46.3758 28.0677C46.4796 28.0387 46.5901 28.0447 46.6901 28.0848C46.7902 28.1249 46.8742 28.1969 46.9292 28.2896C46.9649 28.3561 47.019 28.4109 47.085 28.4474C47.1511 28.4839 47.2263 28.5006 47.3016 28.4954C48.0954 28.4954 49.6536 27.2606 51.6479 23.8355C51.7107 23.7281 51.8119 23.6486 51.9311 23.6131C52.0503 23.5777 52.1785 23.5888 52.2898 23.6444C57.8317 26.4521 61.5312 26.9617 63.6627 26.8931C65.9412 26.8196 66.9408 26.0895 66.9506 26.0846C67.023 26.0288 67.1096 25.9944 67.2006 25.9853C67.2916 25.9762 67.3833 25.9927 67.4653 26.033C67.5474 26.0732 67.6166 26.1357 67.665 26.2132C67.7135 26.2907 67.7393 26.3803 67.7395 26.4717V36.0806C67.7356 38.9597 66.5905 41.7198 64.5551 43.7561C62.5198 45.7924 59.7602 46.9387 56.8811 46.9439ZM46.9978 29.446V36.0806C47.0553 38.6643 48.1221 41.1229 49.9698 42.9299C51.8174 44.7369 54.2991 45.7487 56.8835 45.7487C59.4679 45.7487 61.9496 44.7369 63.7973 42.9299C65.645 41.1229 66.7118 38.6643 66.7693 36.0806V27.29C65.0984 27.9858 60.6639 28.8825 52.2702 24.7322C50.4278 27.7849 48.6785 29.4656 47.3212 29.4803C47.2125 29.4791 47.1043 29.4676 46.9978 29.446Z" fill="#093F68"/>
<path d="M52.4074 35.5269C52.9378 35.5269 53.3678 35.0969 53.3678 34.5665C53.3678 34.0361 52.9378 33.6061 52.4074 33.6061C51.877 33.6061 51.447 34.0361 51.447 34.5665C51.447 35.0969 51.877 35.5269 52.4074 35.5269Z" fill="#093F68"/>
<path d="M61.3548 35.5269C61.8852 35.5269 62.3152 35.0969 62.3152 34.5665C62.3152 34.0361 61.8852 33.6061 61.3548 33.6061C60.8244 33.6061 60.3944 34.0361 60.3944 34.5665C60.3944 35.0969 60.8244 35.5269 61.3548 35.5269Z" fill="#093F68"/>
<path d="M56.8517 39.05C56.5235 39.0488 56.1959 39.0226 55.8717 38.9716C55.8083 38.9604 55.7478 38.9367 55.6935 38.9021C55.6392 38.8674 55.5923 38.8224 55.5555 38.7697C55.5186 38.7169 55.4925 38.6573 55.4787 38.5945C55.4648 38.5316 55.4635 38.4666 55.4748 38.4032C55.4861 38.3398 55.5097 38.2793 55.5443 38.225C55.579 38.1707 55.624 38.1238 55.6768 38.087C55.7296 38.0501 55.7891 38.024 55.852 38.0102C55.9148 37.9963 55.9798 37.995 56.0432 38.0063C56.4384 38.0709 56.8403 38.0841 57.2388 38.0455C57.0707 37.3384 56.8069 36.6576 56.4548 36.0218C56.4057 35.9081 56.4016 35.78 56.4431 35.6633C56.4846 35.5466 56.5688 35.45 56.6787 35.3929C56.7886 35.3358 56.9161 35.3224 57.0354 35.3554C57.1548 35.3885 57.2572 35.4655 57.3221 35.571C57.7582 36.404 58.4393 37.8985 58.1404 38.56C58.0967 38.6612 58.0294 38.7505 57.9442 38.8204C57.8589 38.8903 57.7582 38.9388 57.6504 38.9618C57.3886 39.0229 57.1205 39.0525 56.8517 39.05Z" fill="#093F68"/>
<path d="M49.7369 63.893C49.6069 63.893 49.4823 63.8414 49.3904 63.7495C49.2985 63.6576 49.2469 63.533 49.2469 63.403V53.4217C49.2469 53.2917 49.2985 53.1671 49.3904 53.0752C49.4823 52.9833 49.6069 52.9317 49.7369 52.9317C49.8668 52.9317 49.9915 52.9833 50.0834 53.0752C50.1753 53.1671 50.2269 53.2917 50.2269 53.4217V63.403C50.2269 63.533 50.1753 63.6576 50.0834 63.7495C49.9915 63.8414 49.8668 63.893 49.7369 63.893Z" fill="#093F68"/>
<path d="M63.5108 63.893C63.3809 63.893 63.2562 63.8414 63.1643 63.7495C63.0724 63.6576 63.0208 63.533 63.0208 63.403V53.4217C63.0208 53.2917 63.0724 53.1671 63.1643 53.0752C63.2562 52.9833 63.3809 52.9317 63.5108 52.9317C63.6408 52.9317 63.7654 52.9833 63.8573 53.0752C63.9492 53.1671 64.0008 53.2917 64.0008 53.4217V63.403C64.0008 63.533 63.9492 63.6576 63.8573 63.7495C63.7654 63.8414 63.6408 63.893 63.5108 63.893Z" fill="#093F68"/>
<path d="M54.1959 32.5575H49.193C48.933 32.5575 48.6838 32.4543 48.5 32.2705C48.3162 32.0867 48.213 31.8374 48.213 31.5775C48.213 31.3176 48.3162 31.0683 48.5 30.8845C48.6838 30.7008 48.933 30.5975 49.193 30.5975H54.1959C54.4558 30.5975 54.705 30.7008 54.8888 30.8845C55.0726 31.0683 55.1759 31.3176 55.1759 31.5775C55.1759 31.8374 55.0726 32.0867 54.8888 32.2705C54.705 32.4543 54.4558 32.5575 54.1959 32.5575Z" fill="#093F68"/>
<path d="M64.5741 32.5575H59.5712C59.3113 32.5575 59.062 32.4543 58.8782 32.2705C58.6944 32.0867 58.5912 31.8374 58.5912 31.5775C58.5912 31.3176 58.6944 31.0683 58.8782 30.8845C59.062 30.7008 59.3113 30.5975 59.5712 30.5975H64.5741C64.834 30.5975 65.0833 30.7008 65.267 30.8845C65.4508 31.0683 65.5541 31.3176 65.5541 31.5775C65.5541 31.8374 65.4508 32.0867 65.267 32.2705C65.0833 32.4543 64.834 32.5575 64.5741 32.5575Z" fill="#093F68"/>
<path d="M58.9538 40.4612H55.0338C55.0338 40.4612 54.6173 43.4502 57.1163 43.4502C58.2335 43.46 58.9538 42.2203 58.9538 40.4612Z" fill="white"/>
<path d="M57.0967 43.95C56.7418 43.9683 56.3873 43.907 56.0591 43.7705C55.731 43.634 55.4376 43.4258 55.2004 43.1611C54.2988 42.1321 54.5193 40.4759 54.5291 40.4024C54.5457 40.2846 54.6046 40.177 54.6948 40.0995C54.7849 40.0219 54.9002 39.9798 55.0191 39.981H58.9391C59.069 39.981 59.1937 40.0326 59.2856 40.1245C59.3775 40.2164 59.4291 40.341 59.4291 40.471C59.4438 42.5437 58.503 43.95 57.0967 43.95ZM55.4797 40.961C55.4504 41.5193 55.6129 42.0709 55.9403 42.5241C56.089 42.6781 56.2695 42.7979 56.4692 42.8749C56.6689 42.9519 56.8831 42.9844 57.0967 42.97C57.915 42.97 58.3462 42.0243 58.4442 40.961H55.4797Z" fill="#093F68"/>
<path d="M115.608 5.72998H83.5126C82.7238 5.72998 81.9672 6.04334 81.4095 6.60113C80.8517 7.15892 80.5383 7.91545 80.5383 8.70428V29.2843L74.82 32.3027L80.5187 32.6604V35.5661C80.5187 36.3549 80.8321 37.1114 81.3899 37.6692C81.9477 38.227 82.7042 38.5404 83.493 38.5404H115.588C116.377 38.5404 117.133 38.227 117.691 37.6692C118.249 37.1114 118.562 36.3549 118.562 35.5661V8.69938C118.561 7.91478 118.25 7.16246 117.696 6.60629C117.143 6.05012 116.392 5.73515 115.608 5.72998Z" fill="white"/>
<path d="M115.608 39.05H83.5126C82.5942 39.0487 81.7138 38.6833 81.0644 38.0339C80.415 37.3845 80.0496 36.5041 80.0483 35.5857V33.1357L74.82 32.7927C74.7135 32.7861 74.6121 32.745 74.5312 32.6756C74.4502 32.6062 74.3941 32.5122 74.3714 32.408C74.3486 32.3038 74.3605 32.195 74.4052 32.0982C74.4499 32.0014 74.525 31.9218 74.6191 31.8715L80.0581 28.9805V8.69939C80.0607 7.78354 80.4253 6.90587 81.0725 6.2578C81.7196 5.60974 82.5968 5.24387 83.5126 5.23999H115.608C116.526 5.24129 117.406 5.60669 118.056 6.25609C118.705 6.90549 119.071 7.7859 119.072 8.70429V35.571C119.073 36.027 118.985 36.4788 118.811 36.9005C118.638 37.3222 118.383 37.7056 118.061 38.0287C117.739 38.3518 117.357 38.6083 116.936 38.7836C116.515 38.9588 116.064 39.0493 115.608 39.05ZM76.5987 31.9401L80.5677 32.19C80.6925 32.1975 80.8097 32.2524 80.8953 32.3435C80.981 32.4346 81.0285 32.555 81.0283 32.68V35.5857C81.0283 36.2446 81.29 36.8765 81.7559 37.3424C82.2218 37.8082 82.8537 38.07 83.5126 38.07H115.608C116.266 38.0687 116.897 37.8065 117.363 37.3409C117.828 36.8753 118.091 36.2442 118.092 35.5857V8.69939C118.089 8.04176 117.827 7.41188 117.361 6.94732C116.896 6.48276 116.265 6.22128 115.608 6.21999H83.5126C82.8541 6.22129 82.223 6.48344 81.7574 6.94905C81.2917 7.41467 81.0296 8.04581 81.0283 8.70429V29.2843C81.0281 29.3729 81.0038 29.4599 80.958 29.5358C80.9123 29.6117 80.8468 29.6738 80.7686 29.7155L76.5987 31.9401Z" fill="#093F68"/>
<path d="M115.127 12.7125H90.2109C90.0809 12.7125 89.9563 12.6609 89.8644 12.569C89.7725 12.4771 89.7209 12.3524 89.7209 12.2225C89.7209 12.0925 89.7725 11.9679 89.8644 11.876C89.9563 11.7841 90.0809 11.7325 90.2109 11.7325H115.127C115.257 11.7325 115.382 11.7841 115.474 11.876C115.566 11.9679 115.617 12.0925 115.617 12.2225C115.617 12.3524 115.566 12.4771 115.474 12.569C115.382 12.6609 115.257 12.7125 115.127 12.7125Z" fill="#DFEAEF"/>
<path d="M111.374 17.735H84.5612C84.4312 17.735 84.3066 17.6834 84.2147 17.5915C84.1228 17.4996 84.0712 17.375 84.0712 17.245C84.0712 17.115 84.1228 16.9904 84.2147 16.8985C84.3066 16.8066 84.4312 16.755 84.5612 16.755H111.374C111.504 16.755 111.629 16.8066 111.72 16.8985C111.812 16.9904 111.864 17.115 111.864 17.245C111.864 17.375 111.812 17.4996 111.72 17.5915C111.629 17.6834 111.504 17.735 111.374 17.735Z" fill="#DFEAEF"/>
<path d="M115.127 22.7526H102.123C101.993 22.7526 101.868 22.701 101.776 22.6091C101.684 22.5172 101.633 22.3925 101.633 22.2626C101.633 22.1326 101.684 22.008 101.776 21.9161C101.868 21.8242 101.993 21.7726 102.123 21.7726H115.127C115.257 21.7726 115.382 21.8242 115.474 21.9161C115.566 22.008 115.617 22.1326 115.617 22.2626C115.617 22.3925 115.566 22.5172 115.474 22.6091C115.382 22.701 115.257 22.7526 115.127 22.7526Z" fill="#DFEAEF"/>
<path d="M96.7083 22.7526H84.5612C84.4312 22.7526 84.3066 22.701 84.2147 22.6091C84.1228 22.5172 84.0712 22.3925 84.0712 22.2626C84.0712 22.1326 84.1228 22.008 84.2147 21.9161C84.3066 21.8242 84.4312 21.7726 84.5612 21.7726H96.7083C96.8382 21.7726 96.9629 21.8242 97.0548 21.9161C97.1466 22.008 97.1983 22.1326 97.1983 22.2626C97.1983 22.3925 97.1466 22.5172 97.0548 22.6091C96.9629 22.701 96.8382 22.7526 96.7083 22.7526Z" fill="#DFEAEF"/>
<path d="M110.884 27.78H88.6331C88.5031 27.78 88.3785 27.7284 88.2866 27.6365C88.1947 27.5446 88.1431 27.4199 88.1431 27.29C88.1431 27.16 88.1947 27.0354 88.2866 26.9435C88.3785 26.8516 88.5031 26.8 88.6331 26.8H110.884C111.014 26.8 111.139 26.8516 111.23 26.9435C111.322 27.0354 111.374 27.16 111.374 27.29C111.374 27.4199 111.322 27.5446 111.23 27.6365C111.139 27.7284 111.014 27.78 110.884 27.78Z" fill="#DFEAEF"/>
<path d="M105.861 32.7927H84.5612C84.4312 32.7927 84.3066 32.7411 84.2147 32.6492C84.1228 32.5573 84.0712 32.4326 84.0712 32.3027C84.0712 32.1727 84.1228 32.0481 84.2147 31.9562C84.3066 31.8643 84.4312 31.8127 84.5612 31.8127H105.861C105.991 31.8127 106.116 31.8643 106.208 31.9562C106.3 32.0481 106.351 32.1727 106.351 32.3027C106.351 32.4326 106.3 32.5573 106.208 32.6492C106.116 32.7411 105.991 32.7927 105.861 32.7927Z" fill="#DFEAEF"/>
<path d="M28.9462 17.7987C29.4198 17.7987 29.8037 17.4148 29.8037 16.9412C29.8037 16.4676 29.4198 16.0837 28.9462 16.0837C28.4726 16.0837 28.0887 16.4676 28.0887 16.9412C28.0887 17.4148 28.4726 17.7987 28.9462 17.7987Z" fill="#093F68"/>
<path d="M33.5571 17.7987C34.0307 17.7987 34.4146 17.4148 34.4146 16.9412C34.4146 16.4676 34.0307 16.0837 33.5571 16.0837C33.0835 16.0837 32.6996 16.4676 32.6996 16.9412C32.6996 17.4148 33.0835 17.7987 33.5571 17.7987Z" fill="#093F68"/>
<path d="M38.1631 17.7987C38.6367 17.7987 39.0206 17.4148 39.0206 16.9412C39.0206 16.4676 38.6367 16.0837 38.1631 16.0837C37.6895 16.0837 37.3056 16.4676 37.3056 16.9412C37.3056 17.4148 37.6895 17.7987 38.1631 17.7987Z" fill="#093F68"/>
<path d="M44.1362 63.8097L38.8197 54.8966L34.2431 57.2829L37.3203 63.8097H44.1362Z" fill="#D1D1D1"/>
<path d="M44.1362 64.2997H37.3203C37.2274 64.299 37.1366 64.2719 37.0586 64.2216C36.9805 64.1713 36.9183 64.0998 36.8793 64.0155L33.8021 57.4936C33.7485 57.3794 33.741 57.249 33.7812 57.1294C33.8213 57.0098 33.906 56.9104 34.0177 56.8517L38.5943 54.4654C38.7049 54.4075 38.8334 54.3941 38.9536 54.4278C39.0739 54.4615 39.1767 54.5398 39.2411 54.6467L44.5576 63.55C44.6006 63.6245 44.6232 63.709 44.6232 63.795C44.6232 63.881 44.6006 63.9655 44.5576 64.04C44.5167 64.1168 44.4562 64.1813 44.3821 64.227C44.308 64.2726 44.2232 64.2977 44.1362 64.2997ZM37.629 63.3197H43.2738L38.6384 55.5483L34.8899 57.5083L37.629 63.3197Z" fill="#093F68"/>
<path d="M38.8197 54.8966C38.8197 54.8966 38.6727 50.075 38.0357 50.32C37.3987 50.565 37.1488 52.28 37.1488 52.28C37.1488 52.28 35.326 45.42 34.6988 45.42C34.0716 45.42 33.5669 45.42 33.464 46.7038C33.3611 47.9876 34.444 51.5058 34.444 51.5058C34.444 51.5058 32.2292 51.5744 31.5922 53.3482C30.9552 55.122 34.248 57.2682 34.248 57.2682L38.8197 54.8966Z" fill="#FFC9B0"/>
<path d="M34.2431 57.7729C34.1492 57.7727 34.0574 57.7454 33.9785 57.6945C33.6061 57.4544 30.377 55.2837 31.1267 53.2061C31.3519 52.6546 31.7181 52.172 32.1885 51.8065C32.6589 51.4411 33.217 51.2056 33.807 51.1236C33.4983 50.0407 32.8858 47.7475 32.9691 46.7136C33.0916 45.1162 33.8511 44.979 34.689 44.979C35.0369 44.979 35.6004 44.979 37.1782 50.5601C37.3188 50.2629 37.5601 50.0251 37.8593 49.8888C37.9522 49.8528 38.0524 49.8398 38.1513 49.8509C38.2503 49.862 38.3451 49.8968 38.4277 49.9525C38.609 50.075 39.1774 50.4425 39.3097 54.9064C39.3131 54.9983 39.2906 55.0894 39.2446 55.1691C39.1987 55.2488 39.1313 55.314 39.05 55.3572L34.4685 57.7435C34.3971 57.7724 34.3195 57.7825 34.2431 57.7729ZM34.5273 45.9394C34.0079 45.9394 33.9981 46.106 33.9442 46.7626C33.8707 47.7426 34.6155 50.4327 34.9242 51.3882C34.9469 51.4605 34.9525 51.537 34.9406 51.6119C34.9287 51.6867 34.8996 51.7577 34.8556 51.8194C34.811 51.8805 34.7528 51.9304 34.6856 51.9653C34.6185 52.0001 34.5442 52.019 34.4685 52.0203C34.4685 52.0203 32.5771 52.1085 32.0626 53.5393C31.6853 54.583 33.4003 56.0775 34.2921 56.7145L38.3346 54.6075C38.3028 53.4393 38.1865 52.275 37.9867 51.1236C37.8232 51.5196 37.7096 51.9344 37.6486 52.3584C37.6558 52.4884 37.611 52.6158 37.5242 52.7128C37.4373 52.8097 37.3155 52.8682 37.1856 52.8753C37.0556 52.8825 36.9281 52.8377 36.8312 52.7509C36.7342 52.6641 36.6758 52.5423 36.6686 52.4123C35.9532 49.7026 34.9585 46.5666 34.5273 45.9394Z" fill="#093F68"/>
<path d="M34.2431 50.516C34.2431 50.516 36.3109 53.2747 35.7131 54.1567C35.1153 55.0387 32.7731 56.4499 31.4942 55.1661C30.2153 53.8823 29.7057 52.8778 30.7396 52.0448C31.7735 51.2118 34.2431 50.516 34.2431 50.516Z" fill="#FFC9B0"/>
<path d="M32.8172 56.1706C32.5116 56.1781 32.2076 56.1243 31.9232 56.0124C31.6387 55.9004 31.3795 55.7326 31.161 55.5189C30.1173 54.485 29.6665 53.701 29.691 52.9709C29.7111 52.7125 29.7873 52.4616 29.9142 52.2357C30.0412 52.0098 30.2158 51.8142 30.426 51.6626C31.5236 50.7708 33.9932 50.075 34.0961 50.0456C34.1911 50.0188 34.292 50.0213 34.3855 50.0527C34.4791 50.0842 34.561 50.1432 34.6204 50.222C35.3064 51.1334 36.8205 53.3727 36.0904 54.4311C35.3492 55.3744 34.2704 55.9929 33.0818 56.1559L32.8172 56.1706ZM34.052 51.0844C32.993 51.3788 31.984 51.8297 31.0581 52.4221C30.9548 52.4875 30.8673 52.575 30.802 52.6784C30.7368 52.7818 30.6954 52.8985 30.6808 53.0199C30.6808 53.4364 31.0434 54.0244 31.847 54.8182C32.0017 54.9654 32.1884 55.0747 32.3924 55.1376C32.5965 55.2006 32.8123 55.2153 33.023 55.1808C33.9193 55.0469 34.7344 54.5861 35.3113 53.8872C35.5024 53.603 34.9046 52.28 34.052 51.0844Z" fill="#093F68"/>
<path d="M69.2781 63.5206L76.4762 55.7394L81.0283 59.3507L78.2255 63.8097L69.2781 63.5206Z" fill="#D1D1D1"/>
<path d="M78.25 64.2997L69.3075 64.0106C69.2131 64.0084 69.1214 63.979 69.0433 63.926C68.9652 63.8729 68.9041 63.7984 68.8674 63.7114C68.8306 63.6245 68.8198 63.5288 68.8361 63.4358C68.8525 63.3428 68.8954 63.2566 68.9596 63.1874L76.1577 55.4062C76.2419 55.3152 76.3576 55.2596 76.4812 55.2505C76.6049 55.2414 76.7274 55.2795 76.8241 55.3572L81.3762 58.9685C81.4717 59.0432 81.5361 59.1507 81.5569 59.2702C81.5777 59.3897 81.5535 59.5126 81.4889 59.6153L78.6812 64.0694C78.6358 64.1421 78.572 64.2017 78.4964 64.2421C78.4207 64.2826 78.3357 64.3024 78.25 64.2997ZM70.41 63.0649L78.005 63.3099L80.4256 59.4634L76.5693 56.4058L70.41 63.0649Z" fill="#093F68"/>
<path d="M76.2312 56.1069C76.2312 56.1069 79.5534 51.6528 80.3668 52.574C81.1802 53.4952 79.6073 55.073 79.6073 55.073C79.6073 55.073 89.3485 52.623 89.2505 54.2792C89.1525 55.9354 80.3668 59.7721 80.3668 59.7721L76.2312 56.1069Z" fill="#FFC9B0"/>
<path d="M80.3668 60.2621C80.2477 60.2619 80.1327 60.2184 80.0434 60.1396L75.9078 56.4744C75.8152 56.393 75.7568 56.2797 75.7441 56.1571C75.7314 56.0345 75.7653 55.9116 75.8392 55.8129C76.5056 54.9211 78.7792 52.0105 80.0385 51.9615C80.1688 51.9535 80.2992 51.9754 80.4198 52.0255C80.5404 52.0756 80.648 52.1526 80.7343 52.2506C81.2635 52.8484 81.1312 53.6079 80.7931 54.2743C87.5992 52.6671 89.1231 53.3286 89.422 53.5834C89.5301 53.6692 89.6156 53.7801 89.6711 53.9065C89.7266 54.0329 89.7504 54.1709 89.7405 54.3086C89.6376 56.0971 83.2872 59.042 80.5628 60.2229C80.5012 60.2505 80.4342 60.2639 80.3668 60.2621ZM76.8976 56.0432L80.4599 59.1988C84.8356 57.2731 88.5351 55.0926 88.7556 54.2988C88.0843 53.897 84.0271 54.4507 79.7249 55.5434C79.621 55.569 79.5116 55.5598 79.4133 55.5173C79.3151 55.4749 79.2335 55.4014 79.181 55.3082C79.128 55.2151 79.1069 55.1072 79.1211 55.001C79.1353 54.8948 79.1838 54.7962 79.2594 54.7202C79.5142 54.4654 80.3668 53.4315 80.0336 52.9366C79.5583 53.0199 78.1716 54.3968 76.8976 56.0432Z" fill="#093F68"/>
<path d="M93.5576 42.8181H75.5599V55.1171H93.5576V42.8181Z" fill="#FFBC0E"/>
<path d="M93.5576 55.6071H75.5599C75.4299 55.6071 75.3053 55.5555 75.2134 55.4636C75.1215 55.3717 75.0699 55.247 75.0699 55.1171V42.8181C75.0699 42.6881 75.1215 42.5635 75.2134 42.4716C75.3053 42.3797 75.4299 42.3281 75.5599 42.3281H93.5576C93.6875 42.3281 93.8122 42.3797 93.9041 42.4716C93.996 42.5635 94.0476 42.6881 94.0476 42.8181V55.1171C94.0476 55.247 93.996 55.3717 93.9041 55.4636C93.8122 55.5555 93.6875 55.6071 93.5576 55.6071ZM76.0499 54.6271H93.0676V43.3081H76.0499V54.6271Z" fill="#093F68"/>
<path d="M93.5576 46.3314H75.5599C75.4299 46.3314 75.3053 46.2798 75.2134 46.1879C75.1215 46.096 75.0699 45.9713 75.0699 45.8414C75.0699 45.7114 75.1215 45.5868 75.2134 45.4949C75.3053 45.403 75.4299 45.3514 75.5599 45.3514H93.5576C93.6875 45.3514 93.8122 45.403 93.9041 45.4949C93.996 45.5868 94.0476 45.7114 94.0476 45.8414C94.0476 45.9713 93.996 46.096 93.9041 46.1879C93.8122 46.2798 93.6875 46.3314 93.5576 46.3314Z" fill="#093F68"/>
</svg>
