<svg width="22" height="23" viewBox="0 0 22 23" fill="none" xmlns="http://www.w3.org/2000/svg">
<path d="M11.9167 10.2667H15.1291C15.6331 10.2667 16.0417 10.6809 16.0417 11.2C16.0417 11.7155 15.6339 12.1333 15.1291 12.1333H11.9167V15.4041C11.9167 15.9173 11.5098 16.3333 11 16.3333C10.4937 16.3333 10.0833 15.9182 10.0833 15.4041V12.1333H6.87095C6.36692 12.1333 5.95833 11.7191 5.95833 11.2C5.95833 10.6845 6.3661 10.2667 6.87095 10.2667H10.0833V6.99587C10.0833 6.48269 10.4902 6.06667 11 6.06667C11.5063 6.06667 11.9167 6.48185 11.9167 6.99587V10.2667ZM11 22.4C4.92487 22.4 0 17.3856 0 11.2C0 5.01441 4.92487 0 11 0C17.0751 0 22 5.01441 22 11.2C22 17.3856 17.0751 22.4 11 22.4ZM11 20.5333C16.0626 20.5333 20.1667 16.3547 20.1667 11.2C20.1667 6.04534 16.0626 1.86667 11 1.86667C5.93739 1.86667 1.83333 6.04534 1.83333 11.2C1.83333 16.3547 5.93739 20.5333 11 20.5333Z" fill="white"/>
</svg>
