<svg width="23" height="23" viewBox="0 0 23 23" fill="none" xmlns="http://www.w3.org/2000/svg">
<path d="M22.125 16.6892C22.125 18.2342 21.5051 19.716 20.4017 20.8085C19.2982 21.901 17.8016 22.5148 16.2411 22.5148C14.6807 22.5148 13.1841 21.901 12.0806 20.8085C10.9772 19.716 10.3573 18.2342 10.3573 16.6892H11.2572C11.2563 17.8323 11.6558 18.9403 12.3878 19.8242C13.1197 20.7082 14.1387 21.3134 15.271 21.5367C16.4032 21.76 17.5787 21.5874 18.5968 21.0485C19.6149 20.5096 20.4127 19.6377 20.8542 18.5815C21.2956 17.5252 21.3533 16.3501 21.0174 15.2565C20.6815 14.1629 19.9729 13.2185 19.0124 12.5843C18.0518 11.9502 16.8988 11.6656 15.75 11.779C14.6012 11.8925 13.5278 12.397 12.7127 13.2065L13.8185 14.3014H10.9379V11.4493L12.0764 12.5766C12.8983 11.76 13.9465 11.2033 15.0883 10.9769C16.23 10.7506 17.4139 10.8649 18.4899 11.3053C19.566 11.7458 20.4859 12.4925 21.133 13.4509C21.7801 14.4093 22.1253 15.5363 22.125 16.6892ZM15.7911 13.1124V17.1347H19.8538V16.2437H16.691V13.1124H15.7911ZM16.5905 0.23761H3.28198C2.64383 0.238306 2.03201 0.48961 1.58077 0.936387C1.12952 1.38316 0.875703 1.98892 0.875 2.62076V15.7975C0.875703 16.4293 1.12952 17.0351 1.58077 17.4818C2.03201 17.9286 2.64383 18.1799 3.28198 18.1806H8.38V17.2896H3.28198C2.88243 17.2892 2.49937 17.1318 2.21684 16.8521C1.93431 16.5723 1.77538 16.1931 1.7749 15.7975V2.62076C1.77538 2.22516 1.93431 1.8459 2.21684 1.56617C2.49937 1.28644 2.88243 1.12907 3.28198 1.1286H16.5905C16.99 1.12907 17.3731 1.28644 17.6556 1.56617C17.9381 1.8459 18.0971 2.22516 18.0975 2.62076V9.17328H18.9974V2.62076C18.9967 1.98892 18.7429 1.38316 18.2917 0.936387C17.8404 0.48961 17.2286 0.238306 16.5905 0.23761Z" fill="#FE8C45"/>
</svg>
